<svg width="1553" height="420" viewBox="0 0 1553 420" fill="none" xmlns="http://www.w3.org/2000/svg">
<g clip-path="url(#clip0)">
<rect width="1553" height="420" fill="#FFFFFE"/>
<path fill-rule="evenodd" clip-rule="evenodd" d="M9.5 404C116.919 404 204 316.919 204 209.5C204 102.081 116.919 15 9.5 15C-97.9194 15 -185 102.081 -185 209.5C-185 316.919 -97.9194 404 9.5 404ZM-16.5324 158.897C-17.6558 158.724 -18.8603 158.538 -19.8999 159.222C-19.4358 159.611 -18.9238 159.941 -18.3761 160.202C-16.1666 160.828 -14.7254 161.802 -13.7857 164.287C-13.3169 165.371 -12.6334 166.351 -11.776 167.167C-10.9185 167.983 -9.90479 168.618 -8.79527 169.035C-7.95688 169.287 -7.11768 169.541 -6.27757 169.796C1.06395 172.02 8.4747 174.264 16.0235 175.201C22.0361 175.94 25.3884 178.267 27.2932 183.592C29.0455 188.467 32.5249 189.871 37.5407 188.783C44.5975 187.259 51.9296 187.573 58.8293 189.693C62.2181 190.596 65.2475 192.511 67.5086 195.182C70.1308 198.325 71.1022 203.681 69.1403 206.045C68.8226 206.428 68.5071 206.814 68.1916 207.199C66.5586 209.194 64.9259 211.189 62.9943 212.837C55.7754 219.014 53.0135 226.919 52.9119 236.087C52.8103 245.256 52.1183 254.178 48.1374 262.86C45.4073 268.804 42.474 274.242 37.9153 278.959C33.6106 283.411 29.4011 287.976 26.9884 293.914C24.6749 299.574 22.2559 305.208 19.8381 310.839C18.1886 314.681 16.5396 318.522 14.9251 322.368C13.8394 324.974 12.1569 326.39 9.25531 326.643C3.7887 327.123 2.7157 328.578 3.44585 334.022C3.55864 334.856 3.71333 335.683 3.90933 336.501C5.24266 342.015 4.16965 347.073 1.43318 351.999C0.0873413 354.513 -0.885727 357.207 -1.45567 359.998C-1.6779 361.022 -0.655685 362.926 0.31572 363.444C1.21774 363.926 2.74387 363.464 3.97397 363.092C4.0686 363.063 4.16148 363.035 4.25218 363.008C4.86169 362.831 5.36963 362.078 5.76328 361.446C6.76607 359.911 7.78528 358.385 8.80458 356.859C11.5349 352.77 14.2659 348.681 16.6838 344.418C18.0706 341.956 19.2387 339.362 20.4068 336.768C21.7948 333.686 23.1828 330.603 24.9377 327.743C29.4783 320.383 34.3253 313.221 39.1723 306.059C40.5674 303.998 41.9624 301.936 43.3501 299.87C47.3392 293.93 47.4069 293.958 54.1645 296.743L54.2198 296.765C54.6596 296.946 55.1208 297.097 55.5813 297.248C56.5568 297.568 57.5285 297.886 58.2833 298.479C59.4406 299.354 60.2826 300.578 60.6833 301.969C61.2148 304.572 61.6312 307.204 62.048 309.839C62.4677 312.492 62.8877 315.148 63.4261 317.778C64.026 320.688 64.8689 323.557 65.7116 326.424C67.7137 333.237 69.7147 340.045 68.4546 347.415C68.2843 348.562 68.2185 349.721 68.2578 350.88C68.2768 353.485 69.68 354.674 72.2577 354.674C77.3561 354.649 82.1877 346.492 79.4386 341.787C75.6609 335.318 75.4323 328.413 75.4958 321.325C75.5593 314.774 75.5783 308.248 75.4005 301.723C75.3434 299.51 75.7053 298.194 78.2132 298.422C78.5775 298.456 78.9521 298.465 79.3235 298.474C81.1984 298.519 82.9941 298.563 82.9941 301.729C82.9433 307.015 83.6925 307.502 88.9877 306.687C89.4706 306.615 89.9501 306.52 90.4295 306.425C91.0911 306.293 91.7526 306.162 92.4226 306.092C95.0193 305.82 95.667 304.379 95.4511 301.944C95.1539 298.904 95.0754 295.846 95.2162 292.794C95.4146 289.21 95.6117 285.626 95.8088 282.042C96.7969 264.07 97.7849 246.1 98.9495 228.139C99.4365 220.658 100.207 213.195 100.978 205.732C101.232 203.271 101.486 200.811 101.73 198.35C101.794 197.69 102.014 197.048 102.236 196.402C102.392 195.947 102.549 195.49 102.651 195.024C103.062 193.163 103.459 191.297 103.857 189.432C104.462 186.594 105.066 183.756 105.718 180.929C106.213 178.834 106.823 176.768 107.546 174.739C110.118 167.341 114.683 161.745 122.219 158.88C122.313 158.834 122.402 158.779 122.486 158.716C124.962 157.116 125.571 154.808 124.898 152.102C124.58 150.768 124.127 149.469 123.546 148.225C122.467 145.974 122.835 144.014 124.232 142.029C124.643 141.446 125.079 140.869 125.517 140.291C126.803 138.592 128.099 136.88 128.79 134.959C132.225 125.373 135.368 115.673 138.409 105.948C138.828 104.314 138.698 102.589 138.041 101.035C136.589 97.4219 134.813 93.9468 132.733 90.6521C132.568 90.4019 132.405 90.147 132.24 89.8899C130.718 87.5218 129.071 84.9583 125.286 84L129.825 89.7731L121.038 91.1706C121.379 91.7076 121.657 92.2125 121.912 92.6748C122.408 93.5736 122.815 94.3118 123.419 94.8128C124.472 95.6845 125.592 96.4823 126.71 97.2794C128.31 98.4193 129.907 99.5577 131.305 100.908C132.333 101.908 133.14 104.279 132.67 105.505C129.013 115.016 125.108 124.431 121.025 133.77C120.652 134.621 119.658 135.195 118.651 135.775C118.116 136.083 117.578 136.394 117.127 136.749C116.309 137.401 115.416 138.007 114.524 138.613C112.474 140.005 110.429 141.395 109.305 143.325C107.546 146.34 105.069 147.729 102.419 149.213C102.285 149.288 102.151 149.364 102.016 149.44C101.144 150.005 100.203 150.458 99.2161 150.786C99.0837 150.821 98.9489 150.857 98.8123 150.894C97.5733 151.225 96.1903 151.595 95.1781 151.191C94.5813 150.957 94.4797 148.839 94.5813 147.606C94.6905 146.241 94.9313 144.859 95.1715 143.48C95.6293 140.853 96.0847 138.239 95.6225 135.788C94.9274 132.045 93.342 128.457 91.7625 124.882C91.25 123.722 90.7381 122.564 90.2575 121.402C89.9464 120.656 88.9115 120.055 88.0798 119.682C81.6862 116.837 73.2355 119.499 70.0292 125.746C67.2102 131.247 65.7689 137.128 66.5435 143.451C66.7153 144.897 66.4924 146.399 66.2713 147.889C66.1984 148.381 66.1256 148.871 66.0673 149.357C65.9927 149.969 65.8666 150.578 65.7406 151.187C65.545 152.132 65.3499 153.075 65.3499 154.018C65.3524 154.404 65.3892 154.797 65.4257 155.185C65.5721 156.745 65.7123 158.24 63.5975 159.045C62.8998 159.311 62.208 159.606 61.5157 159.902C60.3179 160.413 59.1185 160.925 57.8833 161.289C56.3772 161.724 54.8711 162.046 53.365 162.367C52.3315 162.588 51.2979 162.809 50.2643 163.066C48.8702 163.428 47.5069 163.939 46.144 164.451C42.8827 165.674 39.6233 166.897 35.947 166.063C30.9037 164.921 25.8994 165.335 20.8444 165.752C20.1337 165.811 19.4221 165.87 18.7092 165.924C13.2616 166.339 7.75081 166.113 2.26326 165.888C1.73236 165.866 1.20168 165.844 0.67128 165.823C-1.85568 165.728 -3.53819 164.546 -4.50327 161.643C-5.22964 159.459 -6.61786 157.482 -7.99649 155.519C-8.44949 154.874 -8.90147 154.23 -9.3286 153.581C-9.53197 153.275 -9.98895 153.137 -10.4483 152.997C-10.663 152.932 -10.8782 152.867 -11.0683 152.785L-11.7032 153.354L-8.6302 158.956L-9.21431 159.449L-12.9159 156.92C-13.4596 159.37 -14.9115 159.146 -16.5324 158.897Z" fill="#094067"/>
<path d="M302.968 177.005C302.873 176.722 303.157 176.014 303.817 174.881C304.478 173.654 305.186 172.19 305.941 170.491C306.791 168.698 307.593 166.715 308.349 164.544C309.198 162.278 309.765 159.965 310.048 157.605C310.426 155.245 310.426 152.885 310.048 150.525C309.67 148.165 308.679 145.9 307.074 143.729C306.13 142.596 304.714 141.982 302.826 141.888C301.033 141.699 298.956 141.982 296.596 142.737C294.33 143.398 291.923 144.484 289.374 145.994C286.92 147.41 284.654 149.109 282.577 151.092C280.5 152.98 278.707 155.104 277.196 157.464C275.78 159.824 274.978 162.231 274.789 164.686C274.6 166.668 274.648 168.509 274.931 170.208C275.308 171.907 275.78 173.465 276.347 174.881C276.913 176.297 277.527 177.618 278.188 178.846C278.848 180.073 279.462 181.159 280.028 182.103C280.784 183.424 281.964 184.887 283.568 186.492C285.173 188.097 286.92 189.938 288.808 192.015C290.696 193.997 292.584 196.263 294.472 198.812C296.36 201.36 298.012 204.24 299.428 207.449C300.844 210.659 301.835 214.246 302.401 218.211C302.968 222.176 302.921 226.565 302.26 231.38C301.221 238.366 299.569 244.171 297.304 248.797C295.038 253.517 292.537 257.293 289.799 260.125C287.156 262.957 284.465 264.987 281.728 266.214C278.99 267.535 276.724 268.385 274.931 268.763C273.515 269.046 271.815 269.282 269.833 269.471C267.945 269.754 265.915 269.707 263.744 269.329C261.667 269.046 259.543 268.385 257.372 267.347C255.201 266.403 253.266 264.892 251.566 262.815C249.584 260.455 248.026 257.907 246.894 255.169C245.855 252.809 245.1 250.071 244.628 246.956C244.062 243.935 244.298 240.773 245.336 237.469C246.091 236.619 246.894 235.864 247.743 235.203C248.593 234.542 249.442 233.976 250.292 233.504C251.236 232.937 252.227 232.418 253.266 231.946C254.493 231.569 255.72 231.238 256.947 230.955C257.986 230.766 259.071 230.672 260.204 230.672C261.431 230.577 262.564 230.719 263.603 231.097C262.187 232.701 261.195 234.212 260.629 235.628C260.251 236.383 259.968 237.044 259.779 237.61C259.402 239.404 259.26 241.528 259.355 243.982C259.543 246.531 260.063 248.938 260.912 251.204C261.856 253.564 263.178 255.547 264.877 257.151C266.576 258.851 268.842 259.747 271.674 259.842C278.565 260.031 284.418 254.65 289.232 243.699C290.837 240.301 291.64 236.855 291.64 233.362C291.734 229.869 291.309 226.518 290.365 223.309C289.516 220.099 288.336 217.125 286.825 214.388C285.409 211.556 283.946 209.148 282.436 207.166C280.925 205.184 279.084 203.06 276.913 200.794C274.836 198.434 272.759 195.885 270.683 193.147C268.606 190.41 266.718 187.436 265.019 184.227C263.414 181.017 262.328 177.524 261.762 173.748C261.007 168.462 261.479 163.647 263.178 159.305C264.971 154.868 267.331 150.997 270.258 147.693C273.279 144.389 276.536 141.699 280.028 139.622C283.616 137.545 286.778 136.224 289.516 135.657C304.714 132.636 314.674 135.185 319.394 143.304C321.376 146.419 322.462 149.723 322.65 153.216C322.839 156.709 322.603 159.965 321.942 162.986C321.376 165.913 320.621 168.414 319.677 170.491C318.827 172.474 318.261 173.559 317.978 173.748C317.411 174.314 316.514 174.928 315.287 175.589C314.06 176.25 312.078 176.863 309.34 177.43C308.585 177.618 307.829 177.713 307.074 177.713C306.413 177.713 305.705 177.666 304.95 177.571C304.195 177.477 303.534 177.288 302.968 177.005Z" fill="#094067"/>
<path d="M383.964 212.547C381.132 216.701 377.922 220.76 374.335 224.725C370.748 228.595 366.925 232.088 362.865 235.203C358.9 238.224 354.794 240.678 350.546 242.566C346.392 244.454 342.333 245.398 338.368 245.398C336.291 245.398 334.026 244.879 331.571 243.841C329.211 242.897 327.04 241.386 325.058 239.31C323.075 237.233 321.47 234.542 320.243 231.238C319.11 227.934 318.78 223.922 319.252 219.202C319.63 215.332 320.81 211.272 322.792 207.024C324.869 202.682 327.371 198.717 330.297 195.13C333.318 191.543 336.669 188.569 340.351 186.209C344.127 183.849 347.903 182.669 351.679 182.669C355.266 182.669 357.862 183.566 359.467 185.359C361.072 187.153 361.78 189.371 361.591 192.015C361.308 194.941 360.458 197.632 359.042 200.086C357.72 202.54 356.116 204.759 354.228 206.741C352.34 208.724 350.31 210.517 348.139 212.122C346.062 213.727 344.079 215.19 342.191 216.512C340.115 217.928 338.132 219.297 336.244 220.618C334.356 221.845 332.704 222.978 331.288 224.017C331.383 226.377 331.807 228.359 332.563 229.964C333.318 231.569 334.262 232.89 335.395 233.929C336.527 234.873 337.802 235.581 339.218 236.053C340.728 236.43 342.239 236.619 343.749 236.619C346.959 236.619 350.31 235.628 353.803 233.646C357.296 231.569 360.694 229.114 363.998 226.282C367.397 223.356 370.512 220.335 373.344 217.22C376.27 214.104 378.677 211.414 380.565 209.148C381.226 208.393 381.887 207.968 382.548 207.874C383.303 207.685 383.87 207.78 384.247 208.157C384.719 208.44 384.955 209.007 384.955 209.856C384.955 210.612 384.625 211.508 383.964 212.547ZM347.714 190.74C346.581 190.74 345.212 191.307 343.607 192.439C342.097 193.572 340.587 195.224 339.076 197.396C337.566 199.472 336.15 202.068 334.828 205.184C333.507 208.204 332.515 211.697 331.855 215.662C332.987 214.812 334.215 213.963 335.536 213.113C336.858 212.169 338.179 211.178 339.501 210.14C343.56 207.024 346.392 204.287 347.997 201.927C349.602 199.567 350.499 197.537 350.688 195.838C350.876 194.044 350.688 192.77 350.121 192.015C349.555 191.165 348.752 190.74 347.714 190.74Z" fill="#094067"/>
<path d="M415.824 245.54C413.653 245.54 411.765 245.115 410.16 244.266C408.65 243.51 407.423 242.472 406.479 241.15C405.535 239.829 404.921 238.318 404.638 236.619C404.355 234.826 404.449 232.937 404.921 230.955C405.204 229.633 405.676 227.887 406.337 225.716C406.998 223.45 407.659 221.043 408.319 218.494C409.075 215.851 409.735 213.255 410.302 210.706C410.963 208.063 411.387 205.703 411.576 203.626C411.765 201.455 411.671 199.708 411.293 198.387C410.915 196.971 410.113 196.263 408.886 196.263C407.375 196.263 405.818 196.782 404.213 197.82C402.608 198.764 400.956 200.086 399.257 201.785C397.652 203.484 396 205.467 394.301 207.732C392.696 209.904 391.091 212.169 389.486 214.529C388.637 217.739 387.929 220.571 387.362 223.025C386.796 225.385 386.277 227.557 385.805 229.539C385.427 231.427 385.05 233.126 384.672 234.637C384.294 236.053 383.964 237.422 383.681 238.743C383.398 239.687 382.548 240.631 381.132 241.575C379.716 242.425 378.205 243.133 376.601 243.699C374.996 244.266 373.627 244.549 372.494 244.549C371.267 244.549 370.748 244.124 370.937 243.274C371.031 242.708 371.361 241.434 371.928 239.451C372.4 237.469 373.013 235.156 373.769 232.513C374.429 229.775 375.137 226.896 375.893 223.875C376.648 220.854 377.356 217.975 378.017 215.237C378.489 213.066 379.008 210.659 379.574 208.016C380.046 205.75 380.613 203.107 381.273 200.086C382.029 197.065 382.878 193.761 383.822 190.174C384.483 189.607 385.144 189.183 385.805 188.899C386.56 188.522 387.315 188.239 388.07 188.05C388.826 187.767 389.628 187.578 390.478 187.483C391.233 187.483 391.988 187.531 392.743 187.625C393.404 187.719 394.065 187.908 394.726 188.191C395.481 188.38 396.142 188.711 396.708 189.183C396.425 189.843 396.094 190.787 395.717 192.015C395.339 193.147 394.962 194.375 394.584 195.696C394.206 197.207 393.734 198.764 393.168 200.369C394.395 198.67 395.764 196.971 397.274 195.271C398.879 193.478 400.579 191.873 402.372 190.457C404.26 189.041 406.243 187.908 408.319 187.059C410.396 186.115 412.52 185.643 414.691 185.643C416.485 185.643 418.09 186.162 419.506 187.2C420.922 188.239 422.008 189.702 422.763 191.59C423.612 193.383 424.084 195.555 424.179 198.104C424.368 200.652 424.037 203.437 423.188 206.458L421.63 212.688C421.158 214.671 420.544 217.031 419.789 219.769C419.128 222.412 418.279 225.338 417.24 228.548C416.674 230.625 416.438 232.418 416.532 233.929C416.721 235.439 417.665 236.194 419.364 236.194C421.064 236.194 423.188 235.156 425.736 233.079C428.38 231.002 431.023 228.501 433.666 225.574C436.309 222.648 438.811 219.674 441.171 216.653C443.531 213.538 445.325 211.036 446.552 209.148C447.401 207.921 448.204 207.119 448.959 206.741C449.714 206.364 450.281 206.316 450.658 206.6C451.13 206.883 451.366 207.544 451.366 208.582C451.366 209.526 450.989 210.753 450.233 212.264C449.573 213.585 448.534 215.332 447.118 217.503C445.797 219.674 444.192 221.987 442.304 224.441C440.416 226.896 438.386 229.397 436.215 231.946C434.044 234.401 431.778 236.666 429.418 238.743C427.058 240.726 424.698 242.33 422.338 243.558C420.072 244.879 417.901 245.54 415.824 245.54Z" fill="#094067"/>
<path d="M492.997 206.175C493.375 205.608 493.847 205.278 494.413 205.184C495.074 204.995 495.593 205.042 495.971 205.325C496.348 205.608 496.537 206.08 496.537 206.741C496.632 207.402 496.396 208.299 495.829 209.432C493.941 213.019 491.44 216.889 488.324 221.043C485.303 225.197 482.094 229.114 478.695 232.796C475.297 236.383 471.993 239.357 468.783 241.717C465.574 244.077 462.883 245.257 460.712 245.257C457.597 245.257 455.001 244.643 452.924 243.416C450.847 242.189 449.195 240.678 447.968 238.885C446.835 237.091 446.033 235.156 445.561 233.079C445.089 230.908 444.947 228.925 445.136 227.132C445.23 225.621 445.561 222.931 446.127 219.061C446.693 215.096 447.449 210.564 448.393 205.467C449.337 200.275 450.375 194.752 451.508 188.899C452.735 182.952 454.01 177.241 455.331 171.766C453.726 171.954 452.121 172.143 450.517 172.332C448.912 172.521 447.449 172.615 446.127 172.615C443.106 172.615 440.274 172.285 437.631 171.624C434.893 170.869 432.864 170.161 431.542 169.5C430.787 169.122 430.456 168.603 430.551 167.942C430.645 167.187 430.928 166.479 431.4 165.818C431.872 165.063 432.486 164.45 433.241 163.978C433.902 163.411 434.516 163.128 435.082 163.128C436.876 163.317 438.811 163.506 440.888 163.694C442.965 163.789 445.23 163.789 447.685 163.694C449.478 163.6 451.177 163.458 452.782 163.27C454.482 163.081 456.134 162.845 457.738 162.562C458.966 158.03 460.146 154.113 461.278 150.809C462.506 147.41 463.591 145.05 464.535 143.729C464.818 143.257 465.432 142.879 466.376 142.596C467.414 142.218 468.5 141.982 469.633 141.888C470.766 141.699 471.851 141.699 472.89 141.888C473.928 141.982 474.683 142.312 475.155 142.879C475.627 143.634 475.816 145.569 475.722 148.685C475.627 151.8 475.108 155.765 474.164 160.579C478.129 160.579 481.622 160.815 484.643 161.287C487.758 161.665 490.401 162.137 492.572 162.703C494.744 163.175 496.49 163.694 497.812 164.261C499.133 164.733 500.124 165.063 500.785 165.252C501.446 165.441 501.776 165.913 501.776 166.668C501.871 167.423 501.729 168.226 501.352 169.075C501.068 169.83 500.549 170.491 499.794 171.058C499.039 171.624 498.189 171.813 497.245 171.624C496.301 171.53 495.216 171.341 493.988 171.058C492.856 170.774 491.44 170.538 489.74 170.35C488.135 170.161 486.2 169.972 483.935 169.783C481.669 169.594 479.026 169.5 476.005 169.5C475.439 169.5 474.778 169.547 474.023 169.642C473.362 169.642 472.654 169.642 471.898 169.642C471.521 171.152 471.143 172.662 470.766 174.173C470.482 175.589 470.058 177.099 469.491 178.704C468.264 182.48 466.848 186.587 465.243 191.023C463.827 194.894 462.128 199.331 460.146 204.334C458.163 209.337 455.945 214.671 453.49 220.335C452.924 224.394 452.971 227.509 453.632 229.681C454.387 231.757 455.284 233.268 456.322 234.212C457.55 235.25 459.06 235.817 460.854 235.911C462.27 236.1 463.969 235.628 465.951 234.495C468.028 233.268 470.152 231.663 472.323 229.681C474.495 227.698 476.666 225.527 478.837 223.167C481.103 220.807 483.179 218.494 485.067 216.229C486.955 213.963 488.607 211.933 490.023 210.14C491.44 208.252 492.431 206.93 492.997 206.175Z" fill="#094067"/>
<path d="M557.567 210.848C558.228 210.092 558.889 209.715 559.55 209.715C560.305 209.62 560.871 209.809 561.249 210.281C561.721 210.659 561.91 211.272 561.815 212.122C561.815 212.972 561.438 213.916 560.683 214.954C558.889 217.409 556.812 219.957 554.452 222.601C552.092 225.149 549.543 227.651 546.806 230.105C544.163 232.56 541.472 234.873 538.734 237.044C535.997 239.215 533.354 241.009 530.805 242.425C527.973 244.03 525.565 244.832 523.583 244.832C521.695 244.832 519.807 243.605 517.919 241.15C516.22 238.979 515.37 236.666 515.37 234.212C515.465 231.663 516.031 228.501 517.069 224.725C517.73 222.365 518.627 219.58 519.76 216.37C520.987 213.066 521.931 209.904 522.592 206.883C523.347 203.862 523.583 201.313 523.3 199.236C523.017 197.065 521.789 195.979 519.618 195.979C518.108 195.979 516.456 196.499 514.662 197.537C512.963 198.576 511.217 199.944 509.423 201.644C507.724 203.248 506.072 205.089 504.467 207.166C502.862 209.243 501.446 211.272 500.219 213.255C499.464 216.937 498.708 220.571 497.953 224.158C497.292 227.179 496.584 230.483 495.829 234.07C495.168 237.563 494.508 240.678 493.847 243.416C493.28 243.888 492.667 244.218 492.006 244.407C491.345 244.596 490.732 244.69 490.165 244.69C489.504 244.69 488.843 244.643 488.183 244.549C487.427 244.36 486.719 244.077 486.059 243.699C485.492 243.322 484.926 242.802 484.359 242.142C483.793 241.575 483.368 240.773 483.085 239.734C487.333 222.27 490.684 208.252 493.139 197.679C495.593 187.106 497.481 179.034 498.803 173.465C500.313 166.857 501.352 162.278 501.918 159.729C502.201 157.936 502.437 156.189 502.626 154.49C502.815 152.98 502.909 151.422 502.909 149.817C502.909 148.213 502.768 146.749 502.484 145.428C503.24 144.956 504.042 144.578 504.892 144.295C505.836 144.012 506.732 143.776 507.582 143.587C508.621 143.304 509.659 143.068 510.697 142.879C511.736 142.69 512.68 142.596 513.529 142.596C514.285 142.596 514.993 142.69 515.653 142.879C516.314 142.973 516.739 143.257 516.928 143.729C517.494 144.201 517.73 145.145 517.636 146.561C517.636 147.977 517.541 149.44 517.353 150.95C516.975 152.744 516.55 154.679 516.078 156.756C514.096 164.402 511.877 171.86 509.423 179.129C506.968 186.303 504.703 193.997 502.626 202.21C503.853 200.322 505.316 198.387 507.016 196.404C508.715 194.422 510.556 192.628 512.538 191.023C514.615 189.324 516.786 187.955 519.052 186.917C521.317 185.784 523.725 185.218 526.273 185.218C527.595 185.218 528.822 185.454 529.955 185.926C531.182 186.303 532.221 187.011 533.07 188.05C534.014 188.994 534.722 190.315 535.194 192.015C535.666 193.619 535.855 195.649 535.761 198.104C535.761 199.614 535.572 201.172 535.194 202.776C534.911 204.381 534.486 206.175 533.92 208.157C533.354 210.045 532.598 212.169 531.654 214.529C530.805 216.889 529.766 219.627 528.539 222.742C527.69 224.913 527.029 226.754 526.557 228.265C526.085 229.775 526.179 231.097 526.84 232.229C527.69 233.74 529.342 234.118 531.796 233.362C534.345 232.513 538.121 230.058 543.124 225.999C544.257 225.055 545.531 223.875 546.947 222.459C548.363 221.043 549.732 219.627 551.054 218.211C552.375 216.701 553.603 215.285 554.735 213.963C555.868 212.641 556.812 211.603 557.567 210.848Z" fill="#094067"/>
<path d="M616.19 212.547C613.358 216.701 610.149 220.76 606.562 224.725C602.974 228.595 599.151 232.088 595.092 235.203C591.127 238.224 587.021 240.678 582.773 242.566C578.619 244.454 574.56 245.398 570.595 245.398C568.518 245.398 566.252 244.879 563.798 243.841C561.438 242.897 559.267 241.386 557.284 239.31C555.302 237.233 553.697 234.542 552.47 231.238C551.337 227.934 551.007 223.922 551.479 219.202C551.856 215.332 553.036 211.272 555.019 207.024C557.095 202.682 559.597 198.717 562.523 195.13C565.544 191.543 568.896 188.569 572.577 186.209C576.353 183.849 580.129 182.669 583.905 182.669C587.493 182.669 590.089 183.566 591.693 185.359C593.298 187.153 594.006 189.371 593.817 192.015C593.534 194.941 592.685 197.632 591.269 200.086C589.947 202.54 588.342 204.759 586.454 206.741C584.566 208.724 582.537 210.517 580.365 212.122C578.288 213.727 576.306 215.19 574.418 216.512C572.341 217.928 570.359 219.297 568.471 220.618C566.583 221.845 564.931 222.978 563.515 224.017C563.609 226.377 564.034 228.359 564.789 229.964C565.544 231.569 566.488 232.89 567.621 233.929C568.754 234.873 570.028 235.581 571.444 236.053C572.955 236.43 574.465 236.619 575.976 236.619C579.185 236.619 582.537 235.628 586.029 233.646C589.522 231.569 592.921 229.114 596.225 226.282C599.623 223.356 602.738 220.335 605.57 217.22C608.497 214.104 610.904 211.414 612.792 209.148C613.453 208.393 614.114 207.968 614.774 207.874C615.53 207.685 616.096 207.78 616.474 208.157C616.946 208.44 617.182 209.007 617.182 209.856C617.182 210.612 616.851 211.508 616.19 212.547ZM579.94 190.74C578.808 190.74 577.439 191.307 575.834 192.439C574.324 193.572 572.813 195.224 571.303 197.396C569.792 199.472 568.376 202.068 567.055 205.184C565.733 208.204 564.742 211.697 564.081 215.662C565.214 214.812 566.441 213.963 567.763 213.113C569.084 212.169 570.406 211.178 571.728 210.14C575.787 207.024 578.619 204.287 580.224 201.927C581.829 199.567 582.725 197.537 582.914 195.838C583.103 194.044 582.914 192.77 582.348 192.015C581.781 191.165 580.979 190.74 579.94 190.74Z" fill="#094067"/>
<path d="M637.148 158.597C636.864 159.635 636.298 160.673 635.448 161.712C634.693 162.656 633.796 163.458 632.758 164.119C631.814 164.686 630.823 165.063 629.784 165.252C628.746 165.441 627.896 165.252 627.235 164.686C625.253 163.175 624.215 161.57 624.12 159.871C624.026 158.077 624.451 156.425 625.395 154.915C626.339 153.31 627.519 151.989 628.935 150.95C630.351 149.817 631.578 149.157 632.616 148.968C633.655 148.779 634.504 149.015 635.165 149.676C635.92 150.242 636.487 151.045 636.864 152.083C637.242 153.027 637.431 154.113 637.431 155.34C637.525 156.567 637.431 157.653 637.148 158.597ZM617.607 188.758C618.079 188.191 618.975 187.719 620.297 187.342C621.619 186.964 622.987 186.681 624.403 186.492C625.819 186.209 627.094 186.067 628.227 186.067C629.454 185.973 630.162 185.973 630.351 186.067C630.445 186.162 630.209 187.153 629.643 189.041C629.076 190.929 628.368 193.147 627.519 195.696C626.669 198.245 625.772 200.888 624.828 203.626C623.884 206.269 623.176 208.44 622.704 210.14C622.232 211.839 621.666 213.774 621.005 215.945C620.344 218.022 619.731 220.099 619.164 222.176C618.692 224.158 618.362 226.046 618.173 227.84C617.984 229.633 618.126 231.002 618.598 231.946C619.07 233.079 619.589 233.882 620.155 234.354C620.722 234.731 621.335 234.92 621.996 234.92C623.884 234.92 626.244 233.882 629.076 231.805C632.003 229.728 634.929 227.273 637.856 224.441C640.876 221.515 643.661 218.589 646.21 215.662C648.759 212.641 650.647 210.234 651.874 208.44C652.629 207.496 653.384 206.883 654.14 206.6C654.989 206.316 655.65 206.364 656.122 206.741C656.689 207.119 656.972 207.732 656.972 208.582C657.066 209.432 656.783 210.423 656.122 211.556C654.612 214.199 652.393 217.361 649.467 221.043C646.54 224.63 643.425 228.123 640.121 231.521C636.817 234.826 633.56 237.658 630.351 240.018C627.235 242.378 624.687 243.605 622.704 243.699C621.099 243.794 619.495 243.51 617.89 242.85C616.379 242.283 614.963 241.481 613.642 240.442C612.414 239.31 611.376 238.035 610.526 236.619C609.677 235.109 609.205 233.551 609.11 231.946C608.827 229.586 608.827 226.377 609.11 222.317C609.394 218.164 609.913 213.963 610.668 209.715C611.423 205.372 612.367 201.266 613.5 197.396C614.727 193.525 616.096 190.646 617.607 188.758Z" fill="#094067"/>
<path d="M718.427 213.821C717.105 215.709 715.406 218.069 713.329 220.901C711.252 223.639 709.081 226.424 706.815 229.256C704.644 231.993 702.473 234.542 700.302 236.902C698.225 239.168 696.479 240.773 695.063 241.717C694.119 242.283 693.033 242.755 691.806 243.133C690.579 243.51 689.304 243.746 687.982 243.841C686.755 243.935 685.575 243.841 684.442 243.558C683.31 243.369 682.318 242.991 681.469 242.425C680.619 241.764 679.911 240.82 679.345 239.593C678.873 238.554 678.401 237.186 677.929 235.486C677.551 233.787 677.41 231.663 677.504 229.114C675.238 232.89 672.737 235.817 669.999 237.894C667.261 239.876 664.665 241.339 662.211 242.283C659.379 243.322 656.547 243.935 653.715 244.124C652.393 244.124 650.977 243.652 649.467 242.708C647.956 241.858 646.682 240.49 645.644 238.602C644.605 236.619 643.944 234.118 643.661 231.097C643.378 227.981 643.756 224.3 644.794 220.052C646.116 214.293 648.192 209.054 651.024 204.334C653.951 199.614 657.113 195.602 660.512 192.298C663.91 188.899 667.261 186.351 670.565 184.651C673.87 182.952 676.607 182.197 678.778 182.386C681.327 182.858 683.404 183.613 685.009 184.651C686.33 185.595 687.18 187.011 687.558 188.899C688.03 190.693 687.274 193.1 685.292 196.121C686.614 195.838 687.699 195.649 688.549 195.555C689.493 195.46 690.201 195.413 690.673 195.413C691.239 195.413 691.617 195.46 691.806 195.555C691.9 195.743 691.947 196.168 691.947 196.829C691.947 197.396 691.806 198.481 691.523 200.086C691.239 201.691 690.815 203.862 690.248 206.6C689.682 209.337 688.926 212.877 687.982 217.22C687.794 218.069 687.605 218.872 687.416 219.627C687.322 220.288 687.18 220.996 686.991 221.751C686.897 222.412 686.755 223.214 686.566 224.158C686.378 225.102 686.142 226.282 685.858 227.698C685.764 228.548 685.717 229.492 685.717 230.53C685.811 231.474 686 232.371 686.283 233.221C686.566 234.07 686.991 234.778 687.558 235.345C688.218 235.817 689.115 236.053 690.248 236.053C691.192 236.053 692.419 235.486 693.93 234.354C695.44 233.126 697.045 231.616 698.744 229.822C700.443 227.934 702.19 225.905 703.983 223.733C705.871 221.468 707.618 219.297 709.223 217.22C710.828 215.143 712.244 213.302 713.471 211.697C714.792 210.092 715.736 208.912 716.303 208.157C717.058 207.308 717.813 206.836 718.568 206.741C719.324 206.552 719.89 206.741 720.268 207.308C720.645 207.874 720.692 208.724 720.409 209.856C720.22 210.989 719.56 212.311 718.427 213.821ZM676.938 220.052C677.41 218.164 677.976 215.945 678.637 213.396C679.298 210.848 679.864 208.393 680.336 206.033C680.808 203.673 681.138 201.738 681.327 200.228C681.61 198.623 681.563 197.868 681.186 197.962C680.714 198.056 680.194 198.198 679.628 198.387C679.156 198.576 678.542 198.717 677.787 198.812C677.032 198.906 676.277 199.048 675.522 199.236C676.277 197.726 676.702 196.499 676.796 195.555C676.985 194.516 677.032 193.714 676.938 193.147C676.843 192.487 676.654 191.967 676.371 191.59C675.333 190.74 673.492 191.448 670.849 193.714C668.3 195.885 665.326 199.944 661.928 205.892C660.512 208.346 659.379 210.989 658.529 213.821C657.68 216.559 657.066 219.155 656.689 221.609C656.405 224.064 656.358 226.235 656.547 228.123C656.736 229.917 657.113 231.097 657.68 231.663C658.718 232.701 659.898 233.221 661.22 233.221C662.541 233.126 663.863 232.749 665.185 232.088C666.601 231.333 667.969 230.389 669.291 229.256C670.707 228.123 671.934 226.943 672.973 225.716C674.106 224.489 675.002 223.356 675.663 222.317C676.418 221.279 676.843 220.524 676.938 220.052Z" fill="#094067"/>
<path d="M772.943 193.855C768.129 193.855 764.211 193.336 761.19 192.298C758.264 191.259 756.282 189.938 755.243 188.333C754.771 187.672 754.346 186.681 753.969 185.359C753.591 184.038 753.733 182.575 754.394 180.97C755.715 182.008 757.131 182.811 758.642 183.377C760.246 183.849 761.71 184.179 763.031 184.368C764.636 184.651 766.194 184.793 767.704 184.793C770.536 184.793 773.274 184.557 775.917 184.085C778.655 183.613 781.345 182.952 783.988 182.103C785.121 176.438 786.207 171.341 787.245 166.81C788.378 162.278 789.652 158.597 791.068 155.765C792.579 152.649 794.136 149.865 795.741 147.41C797.44 144.861 799.281 142.737 801.264 141.038C803.341 139.244 805.606 137.876 808.061 136.932C810.515 135.988 813.347 135.516 816.557 135.516C818.917 135.516 820.758 135.988 822.079 136.932C823.495 137.876 824.534 139.056 825.194 140.472C825.95 141.888 826.374 143.445 826.469 145.145C826.658 146.749 826.752 148.26 826.752 149.676C826.752 152.791 825.997 156.189 824.486 159.871C822.976 163.553 820.852 167.187 818.114 170.774C815.377 174.362 812.073 177.76 808.202 180.97C804.426 184.179 800.178 186.823 795.458 188.899C793.853 195.13 792.248 201.313 790.644 207.449C789.133 213.491 787.623 218.494 786.112 222.459C784.791 226.141 783.092 230.247 781.015 234.778C779.032 239.31 776.578 243.652 773.651 247.806C775.445 248.938 777.239 250.118 779.032 251.346C780.92 252.573 782.808 253.659 784.696 254.603C786.584 255.641 788.472 256.491 790.36 257.151C792.343 257.812 794.42 258.143 796.591 258.143C798.857 258.048 801.075 257.718 803.246 257.151C805.134 256.679 807.117 255.877 809.193 254.744C811.27 253.706 813.205 252.195 814.999 250.213C815.66 251.346 815.849 253.045 815.565 255.311C815.377 257.576 814.669 259.842 813.441 262.107C812.214 264.373 810.468 266.355 808.202 268.055C805.937 269.754 803.105 270.604 799.706 270.604C796.119 270.604 792.768 270.084 789.652 269.046C786.537 268.102 783.611 266.922 780.873 265.506C778.135 264.09 775.539 262.532 773.085 260.833C770.725 259.228 768.507 257.718 766.43 256.302C763.598 259.039 760.482 261.258 757.084 262.957C753.686 264.656 749.91 265.506 745.756 265.506C742.452 265.506 739.809 264.562 737.826 262.674C735.844 260.88 734.947 258.426 735.136 255.311C735.23 254.178 735.561 252.809 736.127 251.204C736.693 249.694 737.779 248.23 739.384 246.814C740.894 245.398 743.018 244.171 745.756 243.133C748.494 242.189 752.034 241.717 756.376 241.717C757.981 241.717 759.491 241.858 760.907 242.142C762.418 242.519 763.881 242.944 765.297 243.416C766.335 241.528 767.374 239.357 768.412 236.902C769.451 234.448 770.583 231.663 771.811 228.548C773.982 222.601 775.87 216.653 777.475 210.706C779.079 204.664 780.448 198.812 781.581 193.147C780.26 193.431 778.844 193.619 777.333 193.714C775.917 193.808 774.454 193.855 772.943 193.855ZM749.438 257.859C750.665 257.387 752.081 256.915 753.686 256.443C755.29 255.971 757.131 254.65 759.208 252.479C757.792 252.007 756.706 251.771 755.951 251.771C752.553 251.771 750.098 252.243 748.588 253.187C746.983 254.225 746.181 255.216 746.181 256.16C746.181 256.821 746.464 257.293 747.03 257.576C747.597 257.954 748.399 258.048 749.438 257.859ZM802.963 159.305C802.491 160.721 801.877 162.798 801.122 165.535C800.367 168.273 799.565 171.435 798.715 175.022C803.813 171.718 807.872 167.942 810.893 163.694C814.008 159.446 815.565 155.198 815.565 150.95C815.565 148.401 814.81 147.127 813.3 147.127C811.978 147.127 810.279 148.165 808.202 150.242C806.125 152.225 804.379 155.245 802.963 159.305Z" fill="#094067"/>
<path d="M862.86 219.485C861.916 223.073 860.642 226.424 859.037 229.539C857.432 232.654 855.497 235.345 853.232 237.61C851.06 239.876 848.559 241.622 845.727 242.85C842.989 244.171 839.968 244.832 836.664 244.832C832.794 244.832 829.726 243.982 827.46 242.283C825.289 240.678 823.637 238.649 822.504 236.194C821.466 233.74 820.852 231.049 820.663 228.123C820.38 225.197 820.238 222.459 820.238 219.91C820.238 218.117 820.474 216.134 820.946 213.963C821.324 211.792 821.89 209.573 822.646 207.308C823.401 205.042 824.345 202.776 825.478 200.511C826.705 198.245 828.121 196.168 829.726 194.28C830.292 192.675 831.142 191.259 832.274 190.032C833.502 188.805 834.87 187.814 836.381 187.059C837.986 186.209 839.685 185.595 841.479 185.218C843.272 184.746 845.019 184.51 846.718 184.51C847.001 184.51 847.237 184.557 847.426 184.651C847.709 184.746 847.992 184.84 848.275 184.935C849.503 185.029 851.013 185.501 852.807 186.351C854.695 187.2 856.488 188.475 858.188 190.174C859.981 191.873 861.492 194.044 862.719 196.687C863.946 199.236 864.56 202.352 864.56 206.033C864.56 206.788 864.512 207.732 864.418 208.865C864.324 209.904 864.229 210.8 864.135 211.556C866.306 210.706 868.572 209.668 870.932 208.44C873.292 207.213 875.557 205.939 877.729 204.617C879.994 203.201 882.071 201.785 883.959 200.369C885.847 198.953 887.357 197.679 888.49 196.546C889.434 195.696 890.237 195.224 890.898 195.13C891.558 195.035 892.03 195.224 892.314 195.696C892.597 196.168 892.644 196.829 892.455 197.679C892.266 198.528 891.747 199.472 890.898 200.511C890.426 201.077 889.198 202.21 887.216 203.909C885.328 205.608 883.062 207.449 880.419 209.432C877.776 211.414 874.897 213.349 871.781 215.237C868.666 217.125 865.692 218.541 862.86 219.485ZM838.93 197.962C838.647 198.812 838.505 199.708 838.505 200.652C838.505 202.163 838.599 203.768 838.788 205.467C838.977 207.072 839.449 208.535 840.204 209.856C840.959 211.178 842.139 212.311 843.744 213.255C845.443 214.104 847.756 214.529 850.683 214.529C851.155 214.529 851.627 214.529 852.099 214.529C852.571 214.435 853.043 214.34 853.515 214.246C853.798 213.019 854.034 211.933 854.223 210.989C854.506 209.951 854.648 209.054 854.648 208.299C854.836 206.505 854.836 204.664 854.648 202.776C854.459 200.888 854.081 199.189 853.515 197.679C853.043 196.074 852.382 194.799 851.532 193.855C850.777 192.817 849.833 192.298 848.7 192.298C846.907 192.298 845.16 192.817 843.461 193.855C841.856 194.799 840.346 196.168 838.93 197.962ZM829.867 222.884C829.867 224.583 829.962 226.282 830.15 227.981C830.339 229.586 830.717 231.049 831.283 232.371C831.85 233.598 832.605 234.637 833.549 235.486C834.493 236.242 835.72 236.619 837.231 236.619C838.93 236.619 840.487 236.242 841.903 235.486C843.319 234.637 844.594 233.598 845.727 232.371C846.859 231.049 847.851 229.586 848.7 227.981C849.644 226.282 850.447 224.536 851.107 222.742C850.447 222.837 849.786 222.931 849.125 223.025C848.559 223.025 847.898 223.025 847.143 223.025C843.555 223.025 840.44 221.987 837.797 219.91C835.248 217.739 833.266 215.001 831.85 211.697C831.283 213.68 830.811 215.615 830.434 217.503C830.056 219.391 829.867 221.185 829.867 222.884Z" fill="#094067"/>
<path d="M872.631 241.292C871.97 242.33 871.262 242.991 870.507 243.274C869.657 243.652 868.949 243.699 868.383 243.416C867.722 243.227 867.297 242.755 867.108 242C866.92 241.245 867.108 240.301 867.675 239.168C867.958 238.602 868.619 237.327 869.657 235.345C870.601 233.362 871.781 231.002 873.197 228.265C874.519 225.433 875.982 222.412 877.587 219.202C879.192 215.898 880.702 212.783 882.118 209.856C883.629 206.93 884.997 204.334 886.225 202.068C887.452 199.708 888.349 198.009 888.915 196.971C887.877 196.027 887.169 195.366 886.791 194.988C886.413 194.516 886.13 193.572 885.941 192.156C885.753 190.929 886.036 189.324 886.791 187.342C887.546 185.359 888.537 183.471 889.765 181.678C890.992 179.79 892.361 178.185 893.871 176.863C895.382 175.542 896.845 174.881 898.261 174.881C900.904 174.881 902.745 175.73 903.783 177.43C904.916 179.129 905.577 180.875 905.766 182.669C905.954 183.896 905.86 185.454 905.482 187.342C905.105 189.23 904.397 190.929 903.358 192.439C903.642 192.628 904.019 192.864 904.491 193.147C904.963 193.336 905.719 193.431 906.757 193.431C908.267 193.431 909.306 193.336 909.872 193.147C910.533 192.959 911.524 192.864 912.846 192.864C914.451 192.864 915.772 193.289 916.811 194.139C917.849 194.894 918.699 195.885 919.359 197.112C920.02 198.245 920.492 199.52 920.775 200.936C921.153 202.257 921.389 203.484 921.483 204.617C921.767 206.977 921.153 209.432 919.643 211.98C918.132 214.529 916.291 217.314 914.12 220.335C912.799 222.223 911.477 224.347 910.155 226.707C908.834 229.067 908.267 231.191 908.456 233.079C908.645 234.306 908.975 235.298 909.447 236.053C909.919 236.808 911.241 237.186 913.412 237.186C915.017 237.186 916.763 236.619 918.651 235.486C920.634 234.259 922.616 232.749 924.599 230.955C926.676 229.067 928.705 227.037 930.688 224.866C932.67 222.601 934.511 220.429 936.21 218.353C937.909 216.181 939.325 214.246 940.458 212.547C941.685 210.848 942.582 209.62 943.148 208.865C943.62 208.11 944.234 207.591 944.989 207.308C945.745 207.024 946.405 207.024 946.972 207.308C947.538 207.591 947.869 208.157 947.963 209.007C948.152 209.856 947.821 210.989 946.972 212.405C946.405 213.349 945.414 214.86 943.998 216.937C942.677 219.013 941.024 221.326 939.042 223.875C937.154 226.424 935.03 229.067 932.67 231.805C930.31 234.448 927.808 236.902 925.165 239.168C922.616 241.339 920.02 243.133 917.377 244.549C914.828 245.965 912.374 246.673 910.014 246.673C907.559 246.673 905.53 246.201 903.925 245.257C902.32 244.313 900.998 243.18 899.96 241.858C899.016 240.442 898.308 238.932 897.836 237.327C897.458 235.628 897.317 234.07 897.411 232.654C897.506 231.521 897.789 230.341 898.261 229.114C898.827 227.793 899.441 226.471 900.102 225.149C900.857 223.733 901.612 222.365 902.367 221.043C903.217 219.627 903.972 218.258 904.633 216.937C906.238 214.199 907.512 211.886 908.456 209.998C909.495 208.016 910.014 206.364 910.014 205.042C910.014 204.192 909.825 203.437 909.447 202.776C909.07 202.116 908.456 201.785 907.607 201.785C907.04 201.785 906.615 201.832 906.332 201.927C906.143 201.927 905.907 201.927 905.624 201.927C905.435 201.927 905.105 201.974 904.633 202.068C904.255 202.068 903.642 202.068 902.792 202.068C901.565 202.068 900.526 201.88 899.677 201.502C898.827 201.124 898.025 200.841 897.27 200.652C896.892 201.313 896.042 202.729 894.721 204.9C893.399 207.072 891.842 209.62 890.048 212.547C888.349 215.473 886.508 218.541 884.525 221.751C882.637 224.961 880.844 227.981 879.145 230.813C877.445 233.551 876.029 235.911 874.897 237.894C873.669 239.782 872.914 240.914 872.631 241.292Z" fill="#094067"/>
<path d="M1001.06 212.547C998.232 216.701 995.022 220.76 991.435 224.725C987.847 228.595 984.024 232.088 979.965 235.203C976 238.224 971.894 240.678 967.646 242.566C963.492 244.454 959.433 245.398 955.468 245.398C953.391 245.398 951.125 244.879 948.671 243.841C946.311 242.897 944.14 241.386 942.157 239.31C940.175 237.233 938.57 234.542 937.343 231.238C936.21 227.934 935.88 223.922 936.352 219.202C936.729 215.332 937.909 211.272 939.892 207.024C941.969 202.682 944.47 198.717 947.397 195.13C950.417 191.543 953.769 188.569 957.45 186.209C961.226 183.849 965.002 182.669 968.778 182.669C972.366 182.669 974.962 183.566 976.566 185.359C978.171 187.153 978.879 189.371 978.69 192.015C978.407 194.941 977.558 197.632 976.142 200.086C974.82 202.54 973.215 204.759 971.327 206.741C969.439 208.724 967.41 210.517 965.238 212.122C963.161 213.727 961.179 215.19 959.291 216.512C957.214 217.928 955.232 219.297 953.344 220.618C951.456 221.845 949.804 222.978 948.388 224.017C948.482 226.377 948.907 228.359 949.662 229.964C950.417 231.569 951.361 232.89 952.494 233.929C953.627 234.873 954.901 235.581 956.317 236.053C957.828 236.43 959.338 236.619 960.849 236.619C964.058 236.619 967.41 235.628 970.902 233.646C974.395 231.569 977.794 229.114 981.098 226.282C984.496 223.356 987.611 220.335 990.443 217.22C993.37 214.104 995.777 211.414 997.665 209.148C998.326 208.393 998.987 207.968 999.648 207.874C1000.4 207.685 1000.97 207.78 1001.35 208.157C1001.82 208.44 1002.05 209.007 1002.05 209.856C1002.05 210.612 1001.72 211.508 1001.06 212.547ZM964.814 190.74C963.681 190.74 962.312 191.307 960.707 192.439C959.197 193.572 957.686 195.224 956.176 197.396C954.665 199.472 953.249 202.068 951.928 205.184C950.606 208.204 949.615 211.697 948.954 215.662C950.087 214.812 951.314 213.963 952.636 213.113C953.957 212.169 955.279 211.178 956.601 210.14C960.66 207.024 963.492 204.287 965.097 201.927C966.702 199.567 967.598 197.537 967.787 195.838C967.976 194.044 967.787 192.77 967.221 192.015C966.654 191.165 965.852 190.74 964.814 190.74Z" fill="#094067"/>
<path d="M1032.92 245.54C1030.75 245.54 1028.86 245.115 1027.26 244.266C1025.75 243.51 1024.52 242.472 1023.58 241.15C1022.63 239.829 1022.02 238.318 1021.74 236.619C1021.45 234.826 1021.55 232.937 1022.02 230.955C1022.3 229.633 1022.78 227.887 1023.44 225.716C1024.1 223.45 1024.76 221.043 1025.42 218.494C1026.17 215.851 1026.84 213.255 1027.4 210.706C1028.06 208.063 1028.49 205.703 1028.68 203.626C1028.86 201.455 1028.77 199.708 1028.39 198.387C1028.02 196.971 1027.21 196.263 1025.99 196.263C1024.47 196.263 1022.92 196.782 1021.31 197.82C1019.71 198.764 1018.06 200.086 1016.36 201.785C1014.75 203.484 1013.1 205.467 1011.4 207.732C1009.8 209.904 1008.19 212.169 1006.59 214.529C1005.74 217.739 1005.03 220.571 1004.46 223.025C1003.9 225.385 1003.38 227.557 1002.9 229.539C1002.53 231.427 1002.15 233.126 1001.77 234.637C1001.39 236.053 1001.06 237.422 1000.78 238.743C1000.5 239.687 999.648 240.631 998.232 241.575C996.815 242.425 995.305 243.133 993.7 243.699C992.095 244.266 990.727 244.549 989.594 244.549C988.367 244.549 987.847 244.124 988.036 243.274C988.131 242.708 988.461 241.434 989.027 239.451C989.499 237.469 990.113 235.156 990.868 232.513C991.529 229.775 992.237 226.896 992.992 223.875C993.747 220.854 994.455 217.975 995.116 215.237C995.588 213.066 996.107 210.659 996.674 208.016C997.146 205.75 997.712 203.107 998.373 200.086C999.128 197.065 999.978 193.761 1000.92 190.174C1001.58 189.607 1002.24 189.183 1002.9 188.899C1003.66 188.522 1004.41 188.239 1005.17 188.05C1005.93 187.767 1006.73 187.578 1007.58 187.483C1008.33 187.483 1009.09 187.531 1009.84 187.625C1010.5 187.719 1011.16 187.908 1011.83 188.191C1012.58 188.38 1013.24 188.711 1013.81 189.183C1013.52 189.843 1013.19 190.787 1012.82 192.015C1012.44 193.147 1012.06 194.375 1011.68 195.696C1011.31 197.207 1010.83 198.764 1010.27 200.369C1011.49 198.67 1012.86 196.971 1014.37 195.271C1015.98 193.478 1017.68 191.873 1019.47 190.457C1021.36 189.041 1023.34 187.908 1025.42 187.059C1027.5 186.115 1029.62 185.643 1031.79 185.643C1033.58 185.643 1035.19 186.162 1036.61 187.2C1038.02 188.239 1039.11 189.702 1039.86 191.59C1040.71 193.383 1041.18 195.555 1041.28 198.104C1041.47 200.652 1041.14 203.437 1040.29 206.458L1038.73 212.688C1038.26 214.671 1037.64 217.031 1036.89 219.769C1036.23 222.412 1035.38 225.338 1034.34 228.548C1033.77 230.625 1033.54 232.418 1033.63 233.929C1033.82 235.439 1034.76 236.194 1036.46 236.194C1038.16 236.194 1040.29 235.156 1042.84 233.079C1045.48 231.002 1048.12 228.501 1050.77 225.574C1053.41 222.648 1055.91 219.674 1058.27 216.653C1060.63 213.538 1062.42 211.036 1063.65 209.148C1064.5 207.921 1065.3 207.119 1066.06 206.741C1066.81 206.364 1067.38 206.316 1067.76 206.6C1068.23 206.883 1068.47 207.544 1068.47 208.582C1068.47 209.526 1068.09 210.753 1067.33 212.264C1066.67 213.585 1065.63 215.332 1064.22 217.503C1062.9 219.674 1061.29 221.987 1059.4 224.441C1057.52 226.896 1055.49 229.397 1053.31 231.946C1051.14 234.401 1048.88 236.666 1046.52 238.743C1044.16 240.726 1041.8 242.33 1039.44 243.558C1037.17 244.879 1035 245.54 1032.92 245.54Z" fill="#094067"/>
<path d="M1101.74 268.479C1098.06 268.574 1095.04 267.913 1092.68 266.497C1090.23 265.081 1088.34 263.004 1087.02 260.267C1085.6 257.623 1084.7 254.367 1084.33 250.496C1083.95 246.72 1083.95 242.566 1084.33 238.035C1084.8 234.542 1085.65 230.908 1086.87 227.132C1087.91 223.922 1089.52 220.382 1091.69 216.512C1093.77 212.641 1096.6 208.865 1100.18 205.184C1100.94 205.372 1101.55 205.608 1102.03 205.892C1102.5 206.08 1102.88 206.316 1103.16 206.6C1103.44 206.977 1103.63 207.308 1103.72 207.591C1103.91 208.629 1103.63 209.809 1102.88 211.131C1102.12 212.452 1101.36 213.868 1100.61 215.379C1098.53 219.721 1096.97 223.828 1095.94 227.698C1094.9 231.569 1094.24 235.156 1093.95 238.46C1093.77 241.292 1093.81 243.841 1094.1 246.106C1094.28 248.466 1094.61 250.449 1095.09 252.054C1095.56 253.753 1096.08 255.027 1096.64 255.877C1097.21 256.821 1097.73 257.293 1098.2 257.293C1098.67 257.293 1099.15 256.963 1099.62 256.302C1100.18 255.641 1100.7 254.839 1101.18 253.895C1101.74 252.951 1102.4 251.487 1103.16 249.505C1103.91 247.617 1104.72 245.398 1105.57 242.85C1106.42 240.301 1107.22 237.563 1107.97 234.637C1108.82 231.616 1109.58 228.595 1110.24 225.574C1111.56 219.533 1112.98 212.736 1114.49 205.184C1116 197.537 1118.22 189.56 1121.14 181.253C1122.09 177.76 1123.27 173.937 1124.68 169.783C1125.81 166.196 1127.23 162.042 1128.93 157.322C1130.72 152.508 1132.75 147.316 1135.02 141.746C1135.02 141.274 1135.4 140.849 1136.15 140.472C1137 140 1137.95 139.528 1138.98 139.056C1140.12 138.584 1141.39 138.112 1142.81 137.64C1144.69 136.979 1146.16 136.601 1147.2 136.507C1148.33 136.412 1149.18 136.554 1149.75 136.932C1150.31 137.309 1150.69 137.828 1150.88 138.489C1151.07 139.056 1151.16 139.716 1151.16 140.472C1151.35 143.587 1151.44 146.513 1151.44 149.251C1151.54 151.989 1151.63 154.396 1151.73 156.473C1151.82 158.927 1151.87 161.146 1151.87 163.128C1151.96 165.771 1151.82 169.311 1151.44 173.748C1151.07 178.09 1150.64 182.669 1150.17 187.483C1149.79 192.298 1149.41 197.018 1149.04 201.644C1148.75 206.175 1148.71 209.951 1148.9 212.972C1148.9 214.576 1148.94 216.087 1149.04 217.503C1149.23 218.825 1149.41 220.146 1149.6 221.468C1150.83 218.069 1152.2 214.529 1153.71 210.848C1155.22 207.072 1156.73 203.484 1158.24 200.086C1159.75 196.593 1161.17 193.383 1162.49 190.457C1163.81 187.436 1164.85 184.935 1165.6 182.952C1166.74 180.309 1168.25 176.958 1170.14 172.898C1172.02 168.839 1173.91 164.78 1175.8 160.721C1177.78 156.661 1179.58 152.933 1181.18 149.534C1182.88 146.136 1184.11 143.776 1184.86 142.454C1185.43 141.51 1186.37 140.66 1187.69 139.905C1189.11 139.15 1190.57 138.489 1192.08 137.923C1193.69 137.356 1195.15 136.979 1196.47 136.79C1197.89 136.507 1198.83 136.46 1199.31 136.648C1200.53 136.932 1201.38 137.309 1201.85 137.781C1202.42 138.253 1202.75 138.584 1202.85 138.772C1203.03 139.15 1203.18 139.811 1203.27 140.755C1203.36 141.604 1203.32 142.973 1203.13 144.861C1202.94 147.127 1202.37 150.573 1201.43 155.198C1200.58 159.824 1199.49 165.11 1198.17 171.058C1196.95 176.91 1195.58 183.188 1194.07 189.891C1192.65 196.593 1191.28 203.201 1189.96 209.715C1188.64 216.134 1187.46 222.176 1186.42 227.84C1185.48 233.504 1184.86 238.271 1184.58 242.142C1184.39 246.484 1184.67 250.307 1185.43 253.611C1185.71 255.027 1186.14 256.396 1186.7 257.718C1187.27 259.039 1188.02 260.172 1188.97 261.116C1189.91 262.155 1191.05 262.91 1192.37 263.382C1193.69 263.854 1195.25 263.995 1197.04 263.807C1194.68 265.411 1192.37 266.591 1190.1 267.347C1187.84 268.102 1185.62 268.479 1183.45 268.479C1181.09 268.574 1179.01 268.196 1177.22 267.347C1175.42 266.591 1173.91 265.459 1172.68 263.948C1171.46 262.532 1170.56 260.786 1169.99 258.709C1169.43 256.727 1169.24 254.508 1169.43 252.054C1169.62 249.788 1170.23 246.059 1171.27 240.867C1172.31 235.675 1173.53 229.822 1174.95 223.309C1176.46 216.701 1178.07 209.856 1179.76 202.776C1181.56 195.602 1183.21 188.899 1184.72 182.669C1186.33 176.344 1187.69 170.916 1188.83 166.385C1189.96 161.854 1190.67 158.88 1190.95 157.464C1191.14 156.331 1191.28 155.293 1191.38 154.349C1191.56 153.31 1191.75 152.413 1191.94 151.658C1191 153.546 1189.82 155.812 1188.4 158.455C1187.08 161.098 1185.66 163.93 1184.15 166.951C1182.64 169.972 1181.09 173.134 1179.48 176.438C1177.97 179.648 1176.51 182.763 1175.09 185.784C1172.73 190.693 1170.42 195.743 1168.15 200.936C1165.89 206.033 1163.86 210.895 1162.06 215.521C1160.27 220.146 1158.76 224.3 1157.53 227.981C1156.4 231.663 1155.74 234.495 1155.55 236.478V238.46C1155.55 239.026 1155.55 239.687 1155.55 240.442C1155.65 241.198 1155.79 241.906 1155.98 242.566L1150.31 246.956C1149.46 247.239 1148.71 247.475 1148.05 247.664C1147.48 247.853 1146.91 247.947 1146.35 247.947C1144.18 247.947 1142.52 246.814 1141.39 244.549C1140.26 242.472 1139.22 238.413 1138.28 232.371C1137.33 226.329 1137.05 218.919 1137.43 210.14C1137.61 205.797 1137.9 201.408 1138.28 196.971C1138.75 192.534 1139.17 188.286 1139.55 184.227C1140.02 180.167 1140.45 176.391 1140.82 172.898C1141.2 169.311 1141.39 166.243 1141.39 163.694C1141.49 161.806 1141.44 160.107 1141.25 158.597C1141.06 156.992 1140.87 155.529 1140.68 154.207C1139.83 156.378 1138.89 159.352 1137.85 163.128C1136.81 166.81 1135.73 170.916 1134.59 175.447C1133.46 179.979 1132.28 184.746 1131.05 189.749C1129.92 194.752 1128.79 199.567 1127.66 204.192C1126.62 208.818 1125.63 213.113 1124.68 217.078C1123.74 220.949 1122.98 224.064 1122.42 226.424C1121.47 230.2 1120.53 234.495 1119.58 239.31C1118.64 244.124 1117.46 248.655 1116.04 252.903C1114.63 257.246 1112.79 260.88 1110.52 263.807C1108.26 266.827 1105.33 268.385 1101.74 268.479Z" fill="#094067"/>
<path d="M1228.9 237.186C1231.83 237.186 1235.04 236.053 1238.53 233.787C1242.12 231.427 1245.56 228.689 1248.87 225.574C1252.26 222.459 1255.33 219.297 1258.07 216.087C1260.9 212.783 1263.03 210.14 1264.44 208.157C1265.29 206.93 1266.09 206.222 1266.85 206.033C1267.6 205.75 1268.17 205.844 1268.55 206.316C1268.93 206.788 1269.07 207.544 1268.97 208.582C1268.88 209.526 1268.45 210.612 1267.7 211.839C1267.04 212.972 1265.91 214.624 1264.3 216.795C1262.79 218.872 1260.95 221.185 1258.78 223.733C1256.7 226.188 1254.29 228.737 1251.56 231.38C1248.91 233.929 1246.13 236.289 1243.2 238.46C1240.28 240.537 1237.25 242.236 1234.14 243.558C1231.02 244.974 1227.96 245.682 1224.94 245.682C1220.78 245.682 1217.29 244.879 1214.46 243.274C1211.72 241.764 1209.5 239.782 1207.8 237.327C1206.2 234.873 1205.06 232.182 1204.4 229.256C1203.74 226.235 1203.41 223.261 1203.41 220.335C1203.41 217.409 1204.07 213.774 1205.39 209.432C1206.72 205.089 1208.65 200.936 1211.2 196.971C1213.84 192.911 1217.15 189.466 1221.11 186.634C1225.08 183.707 1229.75 182.244 1235.13 182.244C1238.15 182.244 1240.7 183.283 1242.78 185.359C1244.95 187.436 1245.99 190.268 1245.89 193.855C1245.89 195.555 1245.61 197.254 1245.04 198.953C1244.48 200.558 1243.72 202.021 1242.78 203.343C1241.83 204.57 1240.7 205.561 1239.38 206.316C1238.15 207.072 1236.78 207.449 1235.27 207.449C1234.05 207.449 1233.1 207.024 1232.44 206.175C1231.87 205.231 1231.5 204.192 1231.31 203.06C1231.21 201.832 1231.21 200.652 1231.31 199.52C1231.5 198.387 1231.69 197.632 1231.87 197.254C1232.35 196.593 1232.87 196.121 1233.43 195.838C1234 195.555 1234.66 195.224 1235.41 194.847C1235.98 194.563 1236.41 194.139 1236.69 193.572C1237.07 193.006 1237.25 192.392 1237.25 191.731C1237.25 191.071 1237.07 190.504 1236.69 190.032C1236.31 189.56 1235.7 189.324 1234.85 189.324C1234 189.324 1232.44 190.032 1230.17 191.448C1228 192.77 1225.74 194.799 1223.38 197.537C1221.11 200.18 1219.08 203.532 1217.29 207.591C1215.5 211.65 1214.55 216.37 1214.46 221.751C1214.36 224.866 1214.79 227.415 1215.73 229.397C1216.68 231.38 1217.86 232.937 1219.27 234.07C1220.69 235.203 1222.25 236.006 1223.94 236.478C1225.64 236.95 1227.3 237.186 1228.9 237.186Z" fill="#094067"/>
<path d="M1280.87 193.855C1276.05 193.855 1272.14 193.336 1269.12 192.298C1266.19 191.259 1264.21 189.938 1263.17 188.333C1262.7 187.672 1262.27 186.681 1261.89 185.359C1261.52 184.038 1261.66 182.575 1262.32 180.97C1263.64 182.008 1265.06 182.811 1266.57 183.377C1268.17 183.849 1269.63 184.179 1270.96 184.368C1272.56 184.651 1274.12 184.793 1275.63 184.793C1278.46 184.793 1281.2 184.557 1283.84 184.085C1286.58 183.613 1289.27 182.952 1291.91 182.103C1293.05 176.438 1294.13 171.341 1295.17 166.81C1296.3 162.278 1297.58 158.597 1298.99 155.765C1300.5 152.649 1302.06 149.865 1303.67 147.41C1305.37 144.861 1307.21 142.737 1309.19 141.038C1311.27 139.244 1313.53 137.876 1315.99 136.932C1318.44 135.988 1321.27 135.516 1324.48 135.516C1326.84 135.516 1328.68 135.988 1330 136.932C1331.42 137.876 1332.46 139.056 1333.12 140.472C1333.87 141.888 1334.3 143.445 1334.39 145.145C1334.58 146.749 1334.68 148.26 1334.68 149.676C1334.68 152.791 1333.92 156.189 1332.41 159.871C1330.9 163.553 1328.78 167.187 1326.04 170.774C1323.3 174.362 1320 177.76 1316.13 180.97C1312.35 184.179 1308.1 186.823 1303.38 188.899C1301.78 195.13 1300.17 201.313 1298.57 207.449C1297.06 213.491 1295.55 218.494 1294.04 222.459C1292.72 226.141 1291.02 230.247 1288.94 234.778C1286.96 239.31 1284.5 243.652 1281.58 247.806C1283.37 248.938 1285.16 250.118 1286.96 251.346C1288.85 252.573 1290.73 253.659 1292.62 254.603C1294.51 255.641 1296.4 256.491 1298.29 257.151C1300.27 257.812 1302.34 258.143 1304.52 258.143C1306.78 258.048 1309 257.718 1311.17 257.151C1313.06 256.679 1315.04 255.877 1317.12 254.744C1319.19 253.706 1321.13 252.195 1322.92 250.213C1323.58 251.346 1323.77 253.045 1323.49 255.311C1323.3 257.576 1322.59 259.842 1321.37 262.107C1320.14 264.373 1318.39 266.355 1316.13 268.055C1313.86 269.754 1311.03 270.604 1307.63 270.604C1304.04 270.604 1300.69 270.084 1297.58 269.046C1294.46 268.102 1291.54 266.922 1288.8 265.506C1286.06 264.09 1283.46 262.532 1281.01 260.833C1278.65 259.228 1276.43 257.718 1274.35 256.302C1271.52 259.039 1268.41 261.258 1265.01 262.957C1261.61 264.656 1257.83 265.506 1253.68 265.506C1250.38 265.506 1247.73 264.562 1245.75 262.674C1243.77 260.88 1242.87 258.426 1243.06 255.311C1243.16 254.178 1243.49 252.809 1244.05 251.204C1244.62 249.694 1245.7 248.23 1247.31 246.814C1248.82 245.398 1250.94 244.171 1253.68 243.133C1256.42 242.189 1259.96 241.717 1264.3 241.717C1265.91 241.717 1267.42 241.858 1268.83 242.142C1270.34 242.519 1271.81 242.944 1273.22 243.416C1274.26 241.528 1275.3 239.357 1276.34 236.902C1277.38 234.448 1278.51 231.663 1279.74 228.548C1281.91 222.601 1283.79 216.653 1285.4 210.706C1287 204.664 1288.37 198.812 1289.51 193.147C1288.18 193.431 1286.77 193.619 1285.26 193.714C1283.84 193.808 1282.38 193.855 1280.87 193.855ZM1257.36 257.859C1258.59 257.387 1260.01 256.915 1261.61 256.443C1263.22 255.971 1265.06 254.65 1267.13 252.479C1265.72 252.007 1264.63 251.771 1263.88 251.771C1260.48 251.771 1258.02 252.243 1256.51 253.187C1254.91 254.225 1254.11 255.216 1254.11 256.16C1254.11 256.821 1254.39 257.293 1254.96 257.576C1255.52 257.954 1256.32 258.048 1257.36 257.859ZM1310.89 159.305C1310.42 160.721 1309.8 162.798 1309.05 165.535C1308.29 168.273 1307.49 171.435 1306.64 175.022C1311.74 171.718 1315.8 167.942 1318.82 163.694C1321.93 159.446 1323.49 155.198 1323.49 150.95C1323.49 148.401 1322.73 147.127 1321.22 147.127C1319.9 147.127 1318.2 148.165 1316.13 150.242C1314.05 152.225 1312.3 155.245 1310.89 159.305Z" fill="#094067"/>
<path d="M1393.02 212.547C1390.18 216.701 1386.97 220.76 1383.39 224.725C1379.8 228.595 1375.98 232.088 1371.92 235.203C1367.95 238.224 1363.85 240.678 1359.6 242.566C1355.44 244.454 1351.39 245.398 1347.42 245.398C1345.34 245.398 1343.08 244.879 1340.62 243.841C1338.26 242.897 1336.09 241.386 1334.11 239.31C1332.13 237.233 1330.52 234.542 1329.3 231.238C1328.16 227.934 1327.83 223.922 1328.3 219.202C1328.68 215.332 1329.86 211.272 1331.84 207.024C1333.92 202.682 1336.42 198.717 1339.35 195.13C1342.37 191.543 1345.72 188.569 1349.4 186.209C1353.18 183.849 1356.96 182.669 1360.73 182.669C1364.32 182.669 1366.91 183.566 1368.52 185.359C1370.12 187.153 1370.83 189.371 1370.64 192.015C1370.36 194.941 1369.51 197.632 1368.09 200.086C1366.77 202.54 1365.17 204.759 1363.28 206.741C1361.39 208.724 1359.36 210.517 1357.19 212.122C1355.11 213.727 1353.13 215.19 1351.24 216.512C1349.17 217.928 1347.18 219.297 1345.3 220.618C1343.41 221.845 1341.76 222.978 1340.34 224.017C1340.44 226.377 1340.86 228.359 1341.62 229.964C1342.37 231.569 1343.31 232.89 1344.45 233.929C1345.58 234.873 1346.85 235.581 1348.27 236.053C1349.78 236.43 1351.29 236.619 1352.8 236.619C1356.01 236.619 1359.36 235.628 1362.86 233.646C1366.35 231.569 1369.75 229.114 1373.05 226.282C1376.45 223.356 1379.56 220.335 1382.4 217.22C1385.32 214.104 1387.73 211.414 1389.62 209.148C1390.28 208.393 1390.94 207.968 1391.6 207.874C1392.36 207.685 1392.92 207.78 1393.3 208.157C1393.77 208.44 1394.01 209.007 1394.01 209.856C1394.01 210.612 1393.68 211.508 1393.02 212.547ZM1356.77 190.74C1355.63 190.74 1354.27 191.307 1352.66 192.439C1351.15 193.572 1349.64 195.224 1348.13 197.396C1346.62 199.472 1345.2 202.068 1343.88 205.184C1342.56 208.204 1341.57 211.697 1340.91 215.662C1342.04 214.812 1343.27 213.963 1344.59 213.113C1345.91 212.169 1347.23 211.178 1348.55 210.14C1352.61 207.024 1355.44 204.287 1357.05 201.927C1358.65 199.567 1359.55 197.537 1359.74 195.838C1359.93 194.044 1359.74 192.77 1359.17 192.015C1358.61 191.165 1357.81 190.74 1356.77 190.74Z" fill="#094067"/>
<path d="M1424.74 219.485C1423.79 223.073 1422.52 226.424 1420.91 229.539C1419.31 232.654 1417.37 235.345 1415.11 237.61C1412.94 239.876 1410.43 241.622 1407.6 242.85C1404.86 244.171 1401.84 244.832 1398.54 244.832C1394.67 244.832 1391.6 243.982 1389.33 242.283C1387.16 240.678 1385.51 238.649 1384.38 236.194C1383.34 233.74 1382.73 231.049 1382.54 228.123C1382.25 225.197 1382.11 222.459 1382.11 219.91C1382.11 218.117 1382.35 216.134 1382.82 213.963C1383.2 211.792 1383.77 209.573 1384.52 207.308C1385.28 205.042 1386.22 202.776 1387.35 200.511C1388.58 198.245 1390 196.168 1391.6 194.28C1392.17 192.675 1393.02 191.259 1394.15 190.032C1395.38 188.805 1396.75 187.814 1398.26 187.059C1399.86 186.209 1401.56 185.595 1403.35 185.218C1405.15 184.746 1406.89 184.51 1408.59 184.51C1408.88 184.51 1409.11 184.557 1409.3 184.651C1409.58 184.746 1409.87 184.84 1410.15 184.935C1411.38 185.029 1412.89 185.501 1414.68 186.351C1416.57 187.2 1418.36 188.475 1420.06 190.174C1421.86 191.873 1423.37 194.044 1424.59 196.687C1425.82 199.236 1426.43 202.352 1426.43 206.033C1426.43 206.788 1426.39 207.732 1426.29 208.865C1426.2 209.904 1426.1 210.8 1426.01 211.556C1428.18 210.706 1430.45 209.668 1432.81 208.44C1435.17 207.213 1437.43 205.939 1439.6 204.617C1441.87 203.201 1443.95 201.785 1445.83 200.369C1447.72 198.953 1449.23 197.679 1450.37 196.546C1451.31 195.696 1452.11 195.224 1452.77 195.13C1453.43 195.035 1453.91 195.224 1454.19 195.696C1454.47 196.168 1454.52 196.829 1454.33 197.679C1454.14 198.528 1453.62 199.472 1452.77 200.511C1452.3 201.077 1451.07 202.21 1449.09 203.909C1447.2 205.608 1444.94 207.449 1442.29 209.432C1439.65 211.414 1436.77 213.349 1433.66 215.237C1430.54 217.125 1427.57 218.541 1424.74 219.485ZM1400.8 197.962C1400.52 198.812 1400.38 199.708 1400.38 200.652C1400.38 202.163 1400.47 203.768 1400.66 205.467C1400.85 207.072 1401.32 208.535 1402.08 209.856C1402.83 211.178 1404.01 212.311 1405.62 213.255C1407.32 214.104 1409.63 214.529 1412.56 214.529C1413.03 214.529 1413.5 214.529 1413.97 214.529C1414.45 214.435 1414.92 214.34 1415.39 214.246C1415.67 213.019 1415.91 211.933 1416.1 210.989C1416.38 209.951 1416.52 209.054 1416.52 208.299C1416.71 206.505 1416.71 204.664 1416.52 202.776C1416.33 200.888 1415.96 199.189 1415.39 197.679C1414.92 196.074 1414.26 194.799 1413.41 193.855C1412.65 192.817 1411.71 192.298 1410.58 192.298C1408.78 192.298 1407.04 192.817 1405.34 193.855C1403.73 194.799 1402.22 196.168 1400.8 197.962ZM1391.74 222.884C1391.74 224.583 1391.84 226.282 1392.03 227.981C1392.21 229.586 1392.59 231.049 1393.16 232.371C1393.72 233.598 1394.48 234.637 1395.42 235.486C1396.37 236.242 1397.6 236.619 1399.11 236.619C1400.8 236.619 1402.36 236.242 1403.78 235.486C1405.19 234.637 1406.47 233.598 1407.6 232.371C1408.73 231.049 1409.73 229.586 1410.58 227.981C1411.52 226.282 1412.32 224.536 1412.98 222.742C1412.32 222.837 1411.66 222.931 1411 223.025C1410.43 223.025 1409.77 223.025 1409.02 223.025C1405.43 223.025 1402.32 221.987 1399.67 219.91C1397.12 217.739 1395.14 215.001 1393.72 211.697C1393.16 213.68 1392.69 215.615 1392.31 217.503C1391.93 219.391 1391.74 221.185 1391.74 222.884Z" fill="#094067"/>
<path d="M1484.92 214.954C1484.44 217.881 1483.97 220.665 1483.5 223.309C1483.12 225.952 1482.89 228.076 1482.79 229.681C1482.7 232.041 1483.12 233.74 1484.07 234.778C1485.01 235.817 1486.05 236.336 1487.18 236.336C1488.5 236.336 1490.11 235.675 1492 234.354C1493.98 233.032 1496.06 231.38 1498.23 229.397C1500.4 227.415 1502.57 225.244 1504.74 222.884C1506.91 220.524 1508.89 218.305 1510.69 216.229C1512.58 214.057 1514.13 212.169 1515.36 210.564C1516.68 208.96 1517.58 207.921 1518.05 207.449C1518.62 206.883 1519.18 206.552 1519.75 206.458C1520.41 206.364 1520.93 206.458 1521.31 206.741C1521.69 207.024 1521.87 207.544 1521.87 208.299C1521.87 209.054 1521.5 209.998 1520.74 211.131C1519.61 212.924 1518.15 215.048 1516.35 217.503C1514.56 219.863 1512.58 222.317 1510.4 224.866C1508.23 227.415 1505.92 229.917 1503.47 232.371C1501.11 234.826 1498.7 236.997 1496.24 238.885C1493.88 240.773 1491.57 242.283 1489.31 243.416C1487.13 244.643 1485.15 245.257 1483.36 245.257C1482.04 245.257 1480.76 244.879 1479.54 244.124C1478.4 243.369 1477.36 242.378 1476.42 241.15C1475.48 239.923 1474.72 238.554 1474.15 237.044C1473.68 235.534 1473.49 234.023 1473.59 232.513C1473.68 231.852 1473.82 230.719 1474.01 229.114C1470.05 233.551 1466.04 237.091 1461.98 239.734C1458.01 242.283 1454.19 243.558 1450.51 243.558C1449.19 243.558 1447.77 243.227 1446.26 242.566C1444.75 241.906 1443.38 240.82 1442.15 239.31C1441.02 237.799 1440.08 235.817 1439.32 233.362C1438.57 230.908 1438.28 227.934 1438.47 224.441C1438.75 218.966 1439.84 213.774 1441.73 208.865C1443.62 203.956 1445.98 199.708 1448.81 196.121C1451.73 192.439 1454.99 189.56 1458.58 187.483C1462.26 185.312 1465.94 184.227 1469.62 184.227C1471.23 184.227 1472.69 184.651 1474.01 185.501C1475.33 186.256 1476.47 187.295 1477.41 188.616C1478.36 189.843 1479.11 191.212 1479.68 192.723C1480.34 194.233 1480.81 195.649 1481.09 196.971C1481.75 194.233 1482.37 191.543 1482.93 188.899C1483.5 186.256 1484.07 183.755 1484.63 181.395C1485.58 177.902 1486.57 174.126 1487.61 170.066C1488.55 166.574 1489.64 162.562 1490.86 158.03C1492.09 153.499 1493.46 148.732 1494.97 143.729C1495.91 142.973 1496.81 142.407 1497.66 142.029C1498.51 141.652 1499.31 141.368 1500.07 141.18C1500.92 140.896 1501.72 140.755 1502.47 140.755C1503.42 140.755 1504.27 140.896 1505.02 141.18C1505.78 141.368 1506.39 141.982 1506.86 143.021C1507.43 143.965 1507.81 145.428 1508 147.41C1508.19 149.393 1508.19 152.083 1508 155.481C1507.81 159.635 1507.05 164.166 1505.73 169.075C1504.5 173.984 1502.85 179.082 1500.78 184.368C1498.7 189.56 1496.29 194.799 1493.55 200.086C1490.91 205.278 1488.03 210.234 1484.92 214.954ZM1476.56 216.795C1476.94 215.001 1477.27 213.208 1477.55 211.414C1477.93 209.62 1478.36 207.78 1478.83 205.892C1478.64 205.986 1478.45 206.08 1478.26 206.175C1478.17 206.269 1478.02 206.364 1477.84 206.458C1476.8 206.93 1476.09 206.93 1475.71 206.458C1475.33 205.892 1475.15 205.042 1475.15 203.909C1475.15 203.343 1475.1 202.352 1475 200.936C1474.91 199.425 1474.63 197.915 1474.15 196.404C1473.78 194.799 1473.16 193.431 1472.31 192.298C1471.46 191.071 1470.28 190.457 1468.77 190.457C1466.6 190.457 1464.38 191.59 1462.12 193.855C1459.85 196.027 1457.73 198.717 1455.75 201.927C1453.76 205.042 1452.11 208.393 1450.79 211.98C1449.47 215.568 1448.71 218.777 1448.52 221.609C1448.34 226.141 1448.9 229.397 1450.22 231.38C1451.55 233.362 1453.34 234.354 1455.6 234.354C1457.3 234.354 1459.14 233.693 1461.13 232.371C1463.2 231.049 1465.19 229.445 1467.07 227.557C1469.06 225.669 1470.85 223.733 1472.46 221.751C1474.15 219.769 1475.52 218.117 1476.56 216.795Z" fill="#094067"/>
</g>
<defs>
<clipPath id="clip0">
<rect width="1553" height="420" fill="white"/>
</clipPath>
</defs>
</svg>
