<?xml version="1.0" standalone="no"?>
<!DOCTYPE svg PUBLIC "-//W3C//DTD SVG 20010904//EN"
 "http://www.w3.org/TR/2001/REC-SVG-20010904/DTD/svg10.dtd">
<svg version="1.0" xmlns="http://www.w3.org/2000/svg"
 width="300.000000pt" height="300.000000pt" viewBox="0 0 300.000000 300.000000"
 preserveAspectRatio="xMidYMid meet">
<metadata>
Created by potrace 1.14, written by Peter Selinger 2001-2017
</metadata>
<g transform="translate(0.000000,300.000000) scale(0.100000,-0.100000)"
fill="#000000" stroke="none">
<path d="M189 2658 c-1 -2 -2 -531 -3 -1175 l-1 -1173 1175 0 1176 0 -1 306 0
307 60 46 c82 63 110 96 147 171 29 58 32 74 32 150 0 67 -5 95 -23 132 -28
59 -102 132 -166 166 l-50 27 2 175 c0 96 2 179 2 183 1 5 21 7 46 4 32 -3 49
1 59 12 17 19 39 126 34 162 -3 22 -8 24 -73 29 l-70 5 0 235 0 235 -1172 3
c-645 1 -1174 1 -1174 0z"/>
</g>
</svg>
