<svg width="520" height="137" viewBox="0 0 520 137" fill="none" xmlns="http://www.w3.org/2000/svg">
<rect width="520" height="137" fill="white"/>
<path d="M64.193 40.169C63.5423 40.0877 62.79 40.047 61.936 40.047C61.1227 40.047 60.106 40.1283 58.886 40.291C57.7067 40.4537 56.4663 40.718 55.165 41.084C53.9043 41.4093 52.8673 41.938 52.054 42.67C51.2407 43.402 50.834 44.2967 50.834 45.354C50.834 46.3707 51.444 47.2857 52.664 48.099C53.9247 48.8717 55.4293 49.6037 57.178 50.295C58.9267 50.9457 60.6753 51.698 62.424 52.552C64.2133 53.406 65.718 54.6667 66.938 56.334C68.1987 57.9607 68.829 59.933 68.829 62.251C68.829 66.3583 66.8567 69.8557 62.912 72.743C59.008 75.5897 54.067 77.013 48.089 77.013C45.0797 77.013 42.843 76.8503 41.379 76.525C41.013 76.159 40.83 73.9833 40.83 69.998C40.83 65.972 40.9113 63.5523 41.074 62.739C41.196 62.373 41.9077 61.9257 43.209 61.397C44.5103 60.8683 45.771 60.604 46.991 60.604C46.991 65.4027 47.4993 68.3103 48.516 69.327C48.9227 69.7337 49.6953 69.937 50.834 69.937C53.4367 69.937 55.6937 69.205 57.605 67.741C59.557 66.277 60.533 64.5487 60.533 62.556C60.533 61.214 59.9027 60.0347 58.642 59.018C57.3813 58.0013 55.836 57.127 54.006 56.395C52.2167 55.6223 50.4273 54.8293 48.638 54.016C46.8487 53.162 45.3237 52.003 44.063 50.539C42.8023 49.075 42.172 47.3467 42.172 45.354C42.172 42.3853 43.941 39.681 47.479 37.241C51.0577 34.7603 56.2223 33.52 62.973 33.52C64.559 33.52 65.4537 33.6217 65.657 33.825C65.6977 33.947 65.718 34.252 65.718 34.74C65.718 35.1873 65.5757 36.082 65.291 37.424C65.0063 38.766 64.6403 39.681 64.193 40.169ZM95.2291 40.169C94.5785 40.0877 93.8261 40.047 92.9721 40.047C92.1588 40.047 91.1421 40.1283 89.9221 40.291C88.7428 40.4537 87.5025 40.718 86.2011 41.084C84.9405 41.4093 83.9035 41.938 83.0901 42.67C82.2768 43.402 81.8701 44.2967 81.8701 45.354C81.8701 46.3707 82.4801 47.2857 83.7001 48.099C84.9608 48.8717 86.4655 49.6037 88.2141 50.295C89.9628 50.9457 91.7115 51.698 93.4601 52.552C95.2495 53.406 96.7541 54.6667 97.9741 56.334C99.2348 57.9607 99.8651 59.933 99.8651 62.251C99.8651 66.3583 97.8928 69.8557 93.9481 72.743C90.0441 75.5897 85.1031 77.013 79.1251 77.013C76.1158 77.013 73.8791 76.8503 72.4151 76.525C72.0491 76.159 71.8661 73.9833 71.8661 69.998C71.8661 65.972 71.9475 63.5523 72.1101 62.739C72.2321 62.373 72.9438 61.9257 74.2451 61.397C75.5465 60.8683 76.8071 60.604 78.0271 60.604C78.0271 65.4027 78.5355 68.3103 79.5521 69.327C79.9588 69.7337 80.7315 69.937 81.8701 69.937C84.4728 69.937 86.7298 69.205 88.6411 67.741C90.5931 66.277 91.5691 64.5487 91.5691 62.556C91.5691 61.214 90.9388 60.0347 89.6781 59.018C88.4175 58.0013 86.8721 57.127 85.0421 56.395C83.2528 55.6223 81.4635 54.8293 79.6741 54.016C77.8848 53.162 76.3598 52.003 75.0991 50.539C73.8385 49.075 73.2081 47.3467 73.2081 45.354C73.2081 42.3853 74.9771 39.681 78.5151 37.241C82.0938 34.7603 87.2585 33.52 94.0091 33.52C95.5951 33.52 96.4898 33.6217 96.6931 33.825C96.7338 33.947 96.7541 34.252 96.7541 34.74C96.7541 35.1873 96.6118 36.082 96.3271 37.424C96.0425 38.766 95.6765 39.681 95.2291 40.169ZM123.187 61.336C122.618 61.2953 120.869 61.275 117.941 61.275C115.013 61.275 113.305 61.3563 112.817 61.519C110.662 68.595 109.442 73.6987 109.157 76.83C109.157 76.8707 108.649 76.891 107.632 76.891C106.656 76.891 105.639 76.83 104.582 76.708C102.345 76.3827 101.227 76.098 101.227 75.854C101.227 74.2273 102.671 69.4897 105.558 61.641C105.029 61.1937 104.419 60.2787 103.728 58.896C103.037 57.4727 102.691 56.2933 102.691 55.358C102.691 55.3173 104.379 55.236 107.754 55.114C111.089 45.4353 112.98 40.3317 113.427 39.803C113.59 39.681 114.322 39.498 115.623 39.254C116.924 38.9693 117.758 38.827 118.124 38.827L118.002 38.034C117.921 37.4647 117.819 36.8547 117.697 36.204C117.616 35.5127 117.575 35.0653 117.575 34.862C117.575 34.74 117.921 34.496 118.612 34.13C120.605 33.154 122.658 32.666 124.773 32.666C125.18 35.0653 125.708 38.1357 126.359 41.877C127.05 45.5777 128.372 51.2507 130.324 58.896C132.276 66.5413 134.147 71.8687 135.936 74.878L136.363 75.61C136.363 75.8133 135.977 76.159 135.204 76.647C134.431 77.135 133.415 77.6027 132.154 78.05C130.893 78.4973 129.734 78.721 128.677 78.721C128.311 78.721 127.416 76.4233 125.993 71.828C124.61 67.192 123.675 63.6947 123.187 61.336ZM121.723 55.053C120.34 49.197 119.588 45.9233 119.466 45.232C119.344 44.5407 119.242 44.195 119.161 44.195C119.08 44.195 118.978 44.2763 118.856 44.439C118.49 45.1303 117.799 46.7977 116.782 49.441C115.806 52.0843 115.176 53.9143 114.891 54.931C119.405 54.931 121.682 54.9717 121.723 55.053ZM143.391 76.83C142.578 76.83 141.846 76.708 141.195 76.464V74.634C141.195 68.412 141.398 59.384 141.805 47.55L142.049 41.633C141.52 40.9417 140.992 39.864 140.463 38.4C139.975 36.8953 139.731 35.9803 139.731 35.655C139.731 35.289 139.772 35.0653 139.853 34.984C139.934 34.9027 140.951 34.801 142.903 34.679C144.896 34.5163 146.929 34.435 149.003 34.435C151.118 34.435 152.297 34.5367 152.541 34.74C159.739 50.844 163.399 59.0587 163.521 59.384C163.684 59.7093 163.806 59.872 163.887 59.872L164.131 59.445V57.737C164.131 54.2803 164.009 49.9697 163.765 44.805C163.562 39.6403 163.338 36.4277 163.094 35.167C163.663 34.6383 164.7 34.191 166.205 33.825C167.75 33.4183 169.133 33.215 170.353 33.215C171.614 33.215 172.244 33.3167 172.244 33.52C172.244 34.3333 172.102 35.289 171.817 36.387C171.532 37.485 171.39 38.0543 171.39 38.095C171.105 39.925 170.963 42.792 170.963 46.696C170.963 50.5593 170.963 53.345 170.963 55.053C171.004 56.761 171.024 58.408 171.024 59.994C171.065 61.5393 171.105 63.0847 171.146 64.63C171.187 66.1347 171.207 67.5173 171.207 68.778C171.288 71.462 171.329 73.3327 171.329 74.39L171.39 75.244C171.39 75.366 171.126 75.5287 170.597 75.732C169.011 76.3827 166.876 76.708 164.192 76.708L161.935 76.464C160.308 71.8687 157.929 66.0737 154.798 59.079C151.667 52.0843 149.918 48.3227 149.552 47.794C149.186 47.2247 148.962 46.94 148.881 46.94L148.698 47.367C148.535 48.5057 148.454 50.966 148.454 54.748C148.454 58.4893 148.535 62.5763 148.698 67.009C148.901 71.4417 149.125 74.2273 149.369 75.366C148.271 76.342 146.278 76.83 143.391 76.83ZM189.524 76.83L189.707 60.055V59.262C188.569 57.676 186.535 54.2803 183.607 49.075C180.72 43.829 179.154 41.0433 178.91 40.718C177.975 39.7827 176.694 39.315 175.067 39.315C175.027 39.2337 175.006 39.01 175.006 38.644C175.006 38.278 175.128 37.7087 175.372 36.936C175.657 36.1227 175.84 35.6753 175.921 35.594C176.043 35.472 176.43 35.35 177.08 35.228C178.829 34.9027 180.598 34.74 182.387 34.74C184.177 34.74 185.112 34.7807 185.193 34.862C185.315 34.9433 185.885 36.0617 186.901 38.217C190.073 44.9677 192.412 49.4817 193.916 51.759H194.038C194.282 50.8643 196.011 47.6313 199.223 42.06C202.477 36.4887 204.368 33.703 204.896 33.703C206.116 33.703 207.336 33.8657 208.556 34.191C209.776 34.5163 210.732 34.8823 211.423 35.289C212.115 35.655 212.44 35.96 212.399 36.204C210.244 38.6033 207.377 42.4667 203.798 47.794C200.26 53.0807 198.166 56.9033 197.515 59.262C197.434 60.0753 197.393 62.6983 197.393 67.131C197.393 71.5637 197.556 74.4713 197.881 75.854C197.881 76.342 197.231 76.708 195.929 76.952C194.628 77.196 193.347 77.318 192.086 77.318C190.866 77.318 190.012 77.1553 189.524 76.83ZM224.113 36.936L223.625 53.711C223.625 64.2843 225.861 69.571 230.335 69.571C231.677 69.571 232.815 69.3067 233.751 68.778C234.686 68.2087 235.54 67.192 236.313 65.728C237.899 62.8813 238.692 57.3913 238.692 49.258C238.692 41.084 238.468 35.6347 238.021 32.91C238.468 32.7067 239.037 32.605 239.729 32.605C242.779 32.605 244.812 33.1337 245.829 34.191C246.195 36.021 246.378 41.816 246.378 51.576C246.378 61.5393 244.731 68.3713 241.437 72.072C239.81 73.902 238.041 75.183 236.13 75.915C234.259 76.647 232.083 77.013 229.603 77.013C224.763 77.013 221.246 75.183 219.05 71.523C216.854 67.8223 215.756 61.458 215.756 52.43C215.756 49.014 215.796 46.3503 215.878 44.439C216 42.5277 216.04 41.5517 216 41.511C215.756 41.0637 215.451 40.291 215.085 39.193C214.759 38.095 214.597 37.302 214.597 36.814C214.597 36.6513 214.983 36.4073 215.756 36.082C217.748 35.3093 219.599 34.923 221.307 34.923C223.015 34.923 223.909 34.9637 223.991 35.045C224.072 35.1263 224.113 35.7567 224.113 36.936ZM273.585 36.875L273.219 62.007C273.219 65.1383 273.28 67.4563 273.402 68.961C274.052 69.1237 275.089 69.205 276.513 69.205C277.977 69.205 279.217 69.083 280.234 68.839C281.291 68.595 282.165 68.168 282.857 67.558C283.589 66.9073 284.178 66.3177 284.626 65.789C285.073 65.2197 285.459 64.386 285.785 63.288C286.273 61.824 286.761 59.8923 287.249 57.493C287.249 57.4523 287.533 57.432 288.103 57.432C288.713 57.432 289.648 57.7167 290.909 58.286C292.21 58.8147 292.861 59.2213 292.861 59.506C292.861 62.6373 292.698 66.1753 292.373 70.12C292.047 74.512 291.641 76.708 291.153 76.708C290.705 76.708 289.811 76.525 288.469 76.159C287.127 75.8337 286.11 75.5287 285.419 75.244C281.759 75.854 277.021 76.1793 271.206 76.22L268.156 76.281L265.716 75.976C265.553 75.8133 265.472 74.024 265.472 70.608L265.716 47.245C265.716 42.487 265.594 39.9657 265.35 39.681C265.146 39.3557 264.78 38.583 264.252 37.363C263.723 36.1023 263.459 35.289 263.459 34.923C263.459 34.7603 263.906 34.5367 264.801 34.252C267.037 33.4387 269.01 33.032 270.718 33.032C272.426 33.032 273.32 33.093 273.402 33.215C273.524 33.337 273.585 34.557 273.585 36.875ZM305.128 36.936L304.64 53.711C304.64 64.2843 306.877 69.571 311.35 69.571C312.692 69.571 313.831 69.3067 314.766 68.778C315.702 68.2087 316.556 67.192 317.328 65.728C318.914 62.8813 319.707 57.3913 319.707 49.258C319.707 41.084 319.484 35.6347 319.036 32.91C319.484 32.7067 320.053 32.605 320.744 32.605C323.794 32.605 325.828 33.1337 326.844 34.191C327.21 36.021 327.393 41.816 327.393 51.576C327.393 61.5393 325.746 68.3713 322.452 72.072C320.826 73.902 319.057 75.183 317.145 75.915C315.275 76.647 313.099 77.013 310.618 77.013C305.779 77.013 302.261 75.183 300.065 71.523C297.869 67.8223 296.771 61.458 296.771 52.43C296.771 49.014 296.812 46.3503 296.893 44.439C297.015 42.5277 297.056 41.5517 297.015 41.511C296.771 41.0637 296.466 40.291 296.1 39.193C295.775 38.095 295.612 37.302 295.612 36.814C295.612 36.6513 295.999 36.4073 296.771 36.082C298.764 35.3093 300.614 34.923 302.322 34.923C304.03 34.923 304.925 34.9637 305.006 35.045C305.088 35.1263 305.128 35.7567 305.128 36.936ZM333.787 73.78L334.458 45.293C334.458 42.4057 334.357 40.8197 334.153 40.535C333.95 40.2097 333.584 39.437 333.055 38.217C332.527 36.9563 332.262 36.143 332.262 35.777C332.262 35.6143 332.669 35.3907 333.482 35.106C335.678 34.2927 337.61 33.886 339.277 33.886C340.985 33.886 341.88 33.947 341.961 34.069C342.043 34.1503 342.083 34.9433 342.083 36.448C342.083 37.912 341.982 41.694 341.778 47.794C341.778 48.038 341.819 48.16 341.9 48.16C341.982 48.16 342.083 48.0787 342.205 47.916C344.483 44.9067 347.228 41.6533 350.44 38.156C353.653 34.618 355.585 32.849 356.235 32.849C356.927 32.849 357.801 33.0727 358.858 33.52C359.916 33.9673 360.79 34.4553 361.481 34.984C362.213 35.472 362.579 35.7973 362.579 35.96V36.021C360.993 37.0377 359.224 38.4407 357.272 40.23C355.32 42.0193 353.734 43.585 352.514 44.927C351.294 46.269 350.684 47.0417 350.684 47.245C350.684 48.7497 352.331 53.1417 355.625 60.421C358.96 67.6597 361.685 72.3567 363.799 74.512C363.84 74.5527 363.738 74.695 363.494 74.939C363.291 75.1423 362.945 75.3863 362.457 75.671C361.969 75.9963 361.42 76.3013 360.81 76.586C359.387 77.318 357.882 77.684 356.296 77.684C354.832 76.22 353.206 73.4953 351.416 69.51C349.627 65.484 348.143 61.8443 346.963 58.591C345.825 55.3377 345.215 53.711 345.133 53.711C344.93 53.711 344.279 54.565 343.181 56.273C342.124 57.9403 341.595 58.9367 341.595 59.262V63.227C341.595 70.2217 341.717 74.3087 341.961 75.488C342.002 75.61 341.778 75.793 341.29 76.037C339.908 76.7283 338.159 77.074 336.044 77.074L333.97 76.769C333.848 76.647 333.787 75.6507 333.787 73.78ZM379.428 76.83C373.369 76.83 368.875 75.0813 365.947 71.584C363.06 68.0867 361.616 63.6947 361.616 58.408C361.616 55.846 361.921 53.4467 362.531 51.21C363.141 48.9733 363.71 47.3873 364.239 46.452C364.768 45.5167 365.195 44.9677 365.52 44.805C365.845 44.6017 367.126 44.5 369.363 44.5H370.522C370.522 42.4667 370.908 40.6977 371.681 39.193C372.494 37.6883 373.531 36.57 374.792 35.838C377.151 34.496 379.387 33.825 381.502 33.825C392.807 33.825 398.46 40.9417 398.46 55.175C398.46 59.6077 397.708 63.5523 396.203 67.009C395.349 68.961 394.231 70.6487 392.848 72.072C391.465 73.4547 389.615 74.5933 387.297 75.488C385.02 76.3827 382.397 76.83 379.428 76.83ZM390.591 54.687C390.591 45.1303 387.744 40.352 382.051 40.352C380.424 40.352 379.164 40.8197 378.269 41.755C377.415 42.6903 376.988 43.89 376.988 45.354C376.988 46.7773 377.435 48.465 378.33 50.417C379.265 52.369 380.201 53.9143 381.136 55.053L382.478 56.761C382.478 57.249 381.726 57.7167 380.221 58.164C378.716 58.5707 377.517 58.774 376.622 58.774C376.419 58.774 375.992 58.3877 375.341 57.615C374.731 56.8423 373.999 55.663 373.145 54.077C372.332 52.4503 371.742 50.7423 371.376 48.953C370.766 49.563 370.278 50.8033 369.912 52.674C369.546 54.5447 369.363 56.3543 369.363 58.103C369.363 61.519 370.319 64.447 372.23 66.887C374.141 69.2863 376.561 70.486 379.489 70.486C386.89 70.486 390.591 65.2197 390.591 54.687ZM403.8 77.501C402.905 77.501 402.173 77.379 401.604 77.135C401.604 70.303 402.193 60.5633 403.373 47.916L403.922 41.633C403.352 40.9417 402.803 39.8843 402.275 38.461C401.787 37.0377 401.543 36.0413 401.543 35.472L401.604 35.289C401.726 35.1263 402.742 34.984 404.654 34.862C406.565 34.74 408.659 34.679 410.937 34.679C413.255 34.679 414.515 34.7807 414.719 34.984C414.922 35.1873 415.898 37.7493 417.647 42.67C419.395 47.55 420.697 51.332 421.551 54.016C421.632 54.2193 421.734 54.321 421.856 54.321C421.978 54.321 422.181 53.894 422.466 53.04C422.75 52.1453 423.93 49.0953 426.004 43.89C428.078 38.644 429.46 35.6753 430.152 34.984C430.518 34.618 432.49 34.435 436.069 34.435C439.647 34.435 441.437 34.5367 441.437 34.74C441.437 35.4313 441.152 36.631 440.583 38.339C440.054 40.047 439.607 41.2467 439.241 41.938C440.664 54.8293 441.376 66.2363 441.376 76.159C441.376 76.5657 440.542 76.9317 438.875 77.257C437.248 77.623 435.906 77.806 434.849 77.806C433.791 77.806 433.263 77.7247 433.263 77.562C433.385 75.8947 433.446 73.2107 433.446 69.51C433.446 65.7687 433.344 61.336 433.141 56.212C432.937 49.8273 432.693 46.635 432.409 46.635L432.043 47.001C431.229 48.5057 430.172 51.0473 428.871 54.626C427.61 58.2047 426.553 61.4173 425.699 64.264L424.418 68.473C424.214 68.9203 423.604 69.144 422.588 69.144C421.612 69.144 420.798 69.083 420.148 68.961C419.538 68.839 419.212 68.717 419.172 68.595C419.05 68.1477 417.789 64.5893 415.39 57.92C412.99 51.21 411.608 47.6313 411.242 47.184C411.12 46.94 411.018 46.818 410.937 46.818C410.855 46.818 410.794 46.9603 410.754 47.245C410.022 50.9457 409.656 56.395 409.656 63.593C409.656 70.7503 409.757 74.8983 409.961 76.037C408.944 77.013 406.89 77.501 403.8 77.501ZM465.895 61.336C465.326 61.2953 463.577 61.275 460.649 61.275C457.721 61.275 456.013 61.3563 455.525 61.519C453.37 68.595 452.15 73.6987 451.865 76.83C451.865 76.8707 451.357 76.891 450.34 76.891C449.364 76.891 448.347 76.83 447.29 76.708C445.053 76.3827 443.935 76.098 443.935 75.854C443.935 74.2273 445.379 69.4897 448.266 61.641C447.737 61.1937 447.127 60.2787 446.436 58.896C445.745 57.4727 445.399 56.2933 445.399 55.358C445.399 55.3173 447.087 55.236 450.462 55.114C453.797 45.4353 455.688 40.3317 456.135 39.803C456.298 39.681 457.03 39.498 458.331 39.254C459.632 38.9693 460.466 38.827 460.832 38.827L460.71 38.034C460.629 37.4647 460.527 36.8547 460.405 36.204C460.324 35.5127 460.283 35.0653 460.283 34.862C460.283 34.74 460.629 34.496 461.32 34.13C463.313 33.154 465.366 32.666 467.481 32.666C467.888 35.0653 468.416 38.1357 469.067 41.877C469.758 45.5777 471.08 51.2507 473.032 58.896C474.984 66.5413 476.855 71.8687 478.644 74.878L479.071 75.61C479.071 75.8133 478.685 76.159 477.912 76.647C477.139 77.135 476.123 77.6027 474.862 78.05C473.601 78.4973 472.442 78.721 471.385 78.721C471.019 78.721 470.124 76.4233 468.701 71.828C467.318 67.192 466.383 63.6947 465.895 61.336ZM464.431 55.053C463.048 49.197 462.296 45.9233 462.174 45.232C462.052 44.5407 461.95 44.195 461.869 44.195C461.788 44.195 461.686 44.2763 461.564 44.439C461.198 45.1303 460.507 46.7977 459.49 49.441C458.514 52.0843 457.884 53.9143 457.599 54.931C462.113 54.931 464.39 54.9717 464.431 55.053Z" fill="#725615"/>
<path d="M53.2 93.4625C53.125 93.6042 53.0167 93.675 52.875 93.675C52.7667 93.675 52.625 93.6 52.45 93.45C52.2833 93.2917 52.0542 93.1208 51.7625 92.9375C51.4708 92.7458 51.1042 92.5708 50.6625 92.4125C50.2292 92.2542 49.6917 92.175 49.05 92.175C48.4083 92.175 47.8417 92.2667 47.35 92.45C46.8667 92.6333 46.4583 92.8833 46.125 93.2C45.8 93.5167 45.55 93.8833 45.375 94.3C45.2083 94.7167 45.125 95.1542 45.125 95.6125C45.125 96.2125 45.25 96.7083 45.5 97.1C45.7583 97.4917 46.0958 97.825 46.5125 98.1C46.9292 98.375 47.4 98.6083 47.925 98.8C48.4583 98.9833 49.0042 99.1667 49.5625 99.35C50.1208 99.5333 50.6625 99.7375 51.1875 99.9625C51.7208 100.179 52.1958 100.454 52.6125 100.787C53.0292 101.121 53.3625 101.533 53.6125 102.025C53.8708 102.508 54 103.112 54 103.837C54 104.579 53.8708 105.279 53.6125 105.937C53.3625 106.587 52.9958 107.154 52.5125 107.637C52.0292 108.121 51.4375 108.504 50.7375 108.787C50.0375 109.063 49.2375 109.2 48.3375 109.2C47.1708 109.2 46.1667 108.996 45.325 108.588C44.4833 108.171 43.7458 107.604 43.1125 106.887L43.4625 106.337C43.5625 106.212 43.6792 106.15 43.8125 106.15C43.8875 106.15 43.9833 106.2 44.1 106.3C44.2167 106.4 44.3583 106.525 44.525 106.675C44.6917 106.817 44.8917 106.975 45.125 107.15C45.3583 107.317 45.6292 107.475 45.9375 107.625C46.2458 107.767 46.6 107.887 47 107.987C47.4 108.087 47.8542 108.137 48.3625 108.137C49.0625 108.137 49.6875 108.033 50.2375 107.825C50.7875 107.608 51.25 107.317 51.625 106.95C52.0083 106.583 52.3 106.15 52.5 105.65C52.7 105.142 52.8 104.6 52.8 104.025C52.8 103.4 52.6708 102.887 52.4125 102.487C52.1625 102.079 51.8292 101.742 51.4125 101.475C50.9958 101.2 50.5208 100.971 49.9875 100.787C49.4625 100.604 48.9208 100.425 48.3625 100.25C47.8042 100.075 47.2583 99.8792 46.725 99.6625C46.2 99.4458 45.7292 99.1708 45.3125 98.8375C44.8958 98.4958 44.5583 98.075 44.3 97.575C44.05 97.0667 43.925 96.4333 43.925 95.675C43.925 95.0833 44.0375 94.5125 44.2625 93.9625C44.4875 93.4125 44.8167 92.9292 45.25 92.5125C45.6833 92.0875 46.2167 91.75 46.85 91.5C47.4917 91.2417 48.2208 91.1125 49.0375 91.1125C49.9542 91.1125 50.775 91.2583 51.5 91.55C52.2333 91.8417 52.9 92.2875 53.5 92.8875L53.2 93.4625ZM62.5664 100.85C63.3414 100.85 64.0372 100.742 64.6539 100.525C65.2706 100.308 65.7914 100.008 66.2164 99.625C66.6497 99.2417 66.9789 98.7917 67.2039 98.275C67.4372 97.75 67.5539 97.1792 67.5539 96.5625C67.5539 95.2042 67.1372 94.1583 66.3039 93.425C65.4706 92.6917 64.2247 92.325 62.5664 92.325H59.2789V100.85H62.5664ZM62.5664 91.3125C64.6414 91.3125 66.2039 91.7667 67.2539 92.675C68.3122 93.5833 68.8414 94.8792 68.8414 96.5625C68.8414 97.3375 68.6956 98.05 68.4039 98.7C68.1122 99.35 67.6956 99.9125 67.1539 100.387C66.6122 100.854 65.9539 101.221 65.1789 101.487C64.4039 101.746 63.5331 101.875 62.5664 101.875H59.2789V109H57.9914V91.3125H62.5664ZM83.0695 107.937L83.0445 109H72.4445V91.3125H83.0445V92.375H73.732V99.525H81.482V100.562H73.732V107.937H83.0695ZM96.484 102.575L92.884 93.6375C92.759 93.3458 92.6382 92.9958 92.5215 92.5875C92.4715 92.7875 92.4173 92.9792 92.359 93.1625C92.3007 93.3375 92.2382 93.5 92.1715 93.65L88.5715 102.575H96.484ZM100.396 109H99.409C99.2923 109 99.1965 108.971 99.1215 108.912C99.0465 108.846 98.9882 108.762 98.9465 108.662L96.8715 103.525H88.184L86.109 108.662C86.0757 108.754 86.0173 108.833 85.934 108.9C85.8507 108.967 85.7507 109 85.634 109H84.659L91.8965 91.3125H93.159L100.396 109ZM104.616 99.475H105.666C105.824 99.475 105.962 99.4708 106.078 99.4625C106.195 99.4458 106.299 99.4208 106.391 99.3875C106.491 99.3542 106.578 99.3083 106.653 99.25C106.737 99.1833 106.824 99.1042 106.916 99.0125L114.053 91.675C114.178 91.5333 114.299 91.4375 114.416 91.3875C114.541 91.3375 114.687 91.3125 114.853 91.3125H115.878L108.153 99.25C107.995 99.4167 107.853 99.5458 107.728 99.6375C107.612 99.7292 107.478 99.8042 107.328 99.8625C107.503 99.9125 107.662 99.9917 107.803 100.1C107.945 100.2 108.087 100.333 108.228 100.5L116.366 109H115.328C115.112 109 114.953 108.975 114.853 108.925C114.762 108.867 114.67 108.779 114.578 108.662L107.103 101.012C107.012 100.921 106.924 100.842 106.841 100.775C106.766 100.708 106.678 100.654 106.578 100.612C106.487 100.562 106.374 100.529 106.241 100.512C106.116 100.487 105.953 100.475 105.753 100.475H104.616V109H103.328V91.3125H104.616V99.475ZM129.822 107.937L129.797 109H119.197V91.3125H129.797V92.375H120.485V99.525H128.235V100.562H120.485V107.937H129.822ZM138.049 100.05C138.833 100.05 139.533 99.9583 140.149 99.775C140.774 99.5833 141.299 99.3125 141.724 98.9625C142.158 98.6125 142.487 98.1917 142.712 97.7C142.937 97.2083 143.049 96.6542 143.049 96.0375C143.049 94.7792 142.637 93.8458 141.812 93.2375C140.995 92.6292 139.799 92.325 138.224 92.325H134.987V100.05H138.049ZM145.899 109H144.799C144.658 109 144.537 108.979 144.437 108.937C144.345 108.887 144.258 108.8 144.174 108.675L138.499 101.5C138.433 101.408 138.362 101.329 138.287 101.262C138.22 101.196 138.141 101.146 138.049 101.112C137.966 101.071 137.862 101.042 137.737 101.025C137.62 101.008 137.474 101 137.299 101H134.987V109H133.699V91.3125H138.224C140.258 91.3125 141.779 91.7083 142.787 92.5C143.804 93.2833 144.312 94.4375 144.312 95.9625C144.312 96.6375 144.195 97.2542 143.962 97.8125C143.729 98.3708 143.391 98.8625 142.949 99.2875C142.516 99.7042 141.987 100.046 141.362 100.312C140.745 100.579 140.049 100.758 139.274 100.85C139.474 100.975 139.654 101.142 139.812 101.35L145.899 109ZM148.072 111.975C148.031 111.942 148.002 111.908 147.985 111.875C147.977 111.842 147.972 111.804 147.972 111.763C147.972 111.713 148.006 111.646 148.072 111.563C148.147 111.479 148.247 111.354 148.372 111.188C148.506 111.029 148.639 110.838 148.772 110.613C148.914 110.396 149.039 110.15 149.147 109.875C149.264 109.6 149.339 109.304 149.372 108.987C149.247 109.029 149.118 109.05 148.985 109.05C148.677 109.05 148.422 108.946 148.222 108.737C148.031 108.529 147.935 108.262 147.935 107.937C147.935 107.646 148.035 107.396 148.235 107.187C148.435 106.979 148.697 106.875 149.022 106.875C149.381 106.875 149.656 107 149.847 107.25C150.047 107.492 150.147 107.812 150.147 108.212C150.147 108.554 150.102 108.9 150.01 109.25C149.927 109.608 149.802 109.958 149.635 110.3C149.468 110.642 149.268 110.971 149.035 111.288C148.802 111.604 148.543 111.896 148.26 112.163L148.072 111.975ZM171.766 107.937L171.741 109H161.141V91.3125H171.741V92.375H162.428V99.525H170.178V100.562H162.428V107.937H171.766ZM189.293 91.3125V109H188.693C188.584 109 188.493 108.983 188.418 108.95C188.351 108.908 188.284 108.842 188.218 108.75L176.73 93.4C176.755 93.65 176.768 93.8875 176.768 94.1125V109H175.643V91.3125H176.28C176.397 91.3125 176.484 91.3292 176.543 91.3625C176.609 91.3875 176.68 91.45 176.755 91.55L188.218 106.862C188.193 106.612 188.18 106.375 188.18 106.15V91.3125H189.293ZM206.015 92.4H199.802V109H198.515V92.4H192.265V91.3125H206.015V92.4ZM213.342 100.05C214.126 100.05 214.826 99.9583 215.442 99.775C216.067 99.5833 216.592 99.3125 217.017 98.9625C217.451 98.6125 217.78 98.1917 218.005 97.7C218.23 97.2083 218.342 96.6542 218.342 96.0375C218.342 94.7792 217.93 93.8458 217.105 93.2375C216.288 92.6292 215.092 92.325 213.517 92.325H210.28V100.05H213.342ZM221.192 109H220.092C219.951 109 219.83 108.979 219.73 108.937C219.638 108.887 219.551 108.8 219.467 108.675L213.792 101.5C213.726 101.408 213.655 101.329 213.58 101.262C213.513 101.196 213.434 101.146 213.342 101.112C213.259 101.071 213.155 101.042 213.03 101.025C212.913 101.008 212.767 101 212.592 101H210.28V109H208.992V91.3125H213.517C215.551 91.3125 217.072 91.7083 218.08 92.5C219.097 93.2833 219.605 94.4375 219.605 95.9625C219.605 96.6375 219.488 97.2542 219.255 97.8125C219.022 98.3708 218.684 98.8625 218.242 99.2875C217.809 99.7042 217.28 100.046 216.655 100.312C216.038 100.579 215.342 100.758 214.567 100.85C214.767 100.975 214.947 101.142 215.105 101.35L221.192 109ZM234.803 107.937L234.778 109H224.178V91.3125H234.778V92.375H225.465V99.525H233.215V100.562H225.465V107.937H234.803ZM243.255 100.85C244.03 100.85 244.726 100.742 245.342 100.525C245.959 100.308 246.48 100.008 246.905 99.625C247.338 99.2417 247.667 98.7917 247.892 98.275C248.126 97.75 248.242 97.1792 248.242 96.5625C248.242 95.2042 247.826 94.1583 246.992 93.425C246.159 92.6917 244.913 92.325 243.255 92.325H239.967V100.85H243.255ZM243.255 91.3125C245.33 91.3125 246.892 91.7667 247.942 92.675C249.001 93.5833 249.53 94.8792 249.53 96.5625C249.53 97.3375 249.384 98.05 249.092 98.7C248.801 99.35 248.384 99.9125 247.842 100.387C247.301 100.854 246.642 101.221 245.867 101.487C245.092 101.746 244.222 101.875 243.255 101.875H239.967V109H238.68V91.3125H243.255ZM257.483 100.05C258.266 100.05 258.966 99.9583 259.583 99.775C260.208 99.5833 260.733 99.3125 261.158 98.9625C261.591 98.6125 261.921 98.1917 262.146 97.7C262.371 97.2083 262.483 96.6542 262.483 96.0375C262.483 94.7792 262.071 93.8458 261.246 93.2375C260.429 92.6292 259.233 92.325 257.658 92.325H254.421V100.05H257.483ZM265.333 109H264.233C264.091 109 263.971 108.979 263.871 108.937C263.779 108.887 263.691 108.8 263.608 108.675L257.933 101.5C257.866 101.408 257.796 101.329 257.721 101.262C257.654 101.196 257.575 101.146 257.483 101.112C257.4 101.071 257.296 101.042 257.171 101.025C257.054 101.008 256.908 101 256.733 101H254.421V109H253.133V91.3125H257.658C259.691 91.3125 261.212 91.7083 262.221 92.5C263.237 93.2833 263.746 94.4375 263.746 95.9625C263.746 96.6375 263.629 97.2542 263.396 97.8125C263.162 98.3708 262.825 98.8625 262.383 99.2875C261.95 99.7042 261.421 100.046 260.796 100.312C260.179 100.579 259.483 100.758 258.708 100.85C258.908 100.975 259.087 101.142 259.246 101.35L265.333 109ZM278.944 107.937L278.919 109H268.319V91.3125H278.919V92.375H269.606V99.525H277.356V100.562H269.606V107.937H278.944ZM296.471 91.3125V109H295.871C295.762 109 295.671 108.983 295.596 108.95C295.529 108.908 295.462 108.842 295.396 108.75L283.908 93.4C283.933 93.65 283.946 93.8875 283.946 94.1125V109H282.821V91.3125H283.458C283.575 91.3125 283.662 91.3292 283.721 91.3625C283.787 91.3875 283.858 91.45 283.933 91.55L295.396 106.862C295.371 106.612 295.358 106.375 295.358 106.15V91.3125H296.471ZM312.318 107.937L312.293 109H301.693V91.3125H312.293V92.375H302.98V99.525H310.73V100.562H302.98V107.937H312.318ZM322.67 108.087C323.52 108.087 324.278 107.942 324.945 107.65C325.62 107.35 326.19 106.937 326.657 106.412C327.124 105.887 327.478 105.271 327.72 104.562C327.97 103.846 328.095 103.075 328.095 102.25V91.3125H329.37V102.25C329.37 103.225 329.215 104.137 328.907 104.987C328.599 105.829 328.153 106.567 327.57 107.2C326.995 107.825 326.29 108.317 325.457 108.675C324.632 109.033 323.703 109.213 322.67 109.213C321.636 109.213 320.703 109.033 319.87 108.675C319.045 108.317 318.34 107.825 317.757 107.2C317.182 106.567 316.74 105.829 316.432 104.987C316.124 104.137 315.97 103.225 315.97 102.25V91.3125H317.257V102.237C317.257 103.062 317.378 103.833 317.62 104.55C317.87 105.258 318.224 105.875 318.682 106.4C319.149 106.925 319.715 107.337 320.382 107.637C321.057 107.937 321.82 108.087 322.67 108.087ZM338.709 100.05C339.492 100.05 340.192 99.9583 340.809 99.775C341.434 99.5833 341.959 99.3125 342.384 98.9625C342.817 98.6125 343.146 98.1917 343.371 97.7C343.596 97.2083 343.709 96.6542 343.709 96.0375C343.709 94.7792 343.296 93.8458 342.471 93.2375C341.654 92.6292 340.459 92.325 338.884 92.325H335.646V100.05H338.709ZM346.559 109H345.459C345.317 109 345.196 108.979 345.096 108.937C345.004 108.887 344.917 108.8 344.834 108.675L339.159 101.5C339.092 101.408 339.021 101.329 338.946 101.262C338.879 101.196 338.8 101.146 338.709 101.112C338.625 101.071 338.521 101.042 338.396 101.025C338.279 101.008 338.134 101 337.959 101H335.646V109H334.359V91.3125H338.884C340.917 91.3125 342.438 91.7083 343.446 92.5C344.463 93.2833 344.971 94.4375 344.971 95.9625C344.971 96.6375 344.854 97.2542 344.621 97.8125C344.388 98.3708 344.05 98.8625 343.609 99.2875C343.175 99.7042 342.646 100.046 342.021 100.312C341.404 100.579 340.709 100.758 339.934 100.85C340.134 100.975 340.313 101.142 340.471 101.35L346.559 109ZM348.732 111.975C348.69 111.942 348.661 111.908 348.644 111.875C348.636 111.842 348.632 111.804 348.632 111.763C348.632 111.713 348.665 111.646 348.732 111.563C348.807 111.479 348.907 111.354 349.032 111.188C349.165 111.029 349.298 110.838 349.432 110.613C349.573 110.396 349.698 110.15 349.807 109.875C349.923 109.6 349.998 109.304 350.032 108.987C349.907 109.029 349.777 109.05 349.644 109.05C349.336 109.05 349.082 108.946 348.882 108.737C348.69 108.529 348.594 108.262 348.594 107.937C348.594 107.646 348.694 107.396 348.894 107.187C349.094 106.979 349.357 106.875 349.682 106.875C350.04 106.875 350.315 107 350.507 107.25C350.707 107.492 350.807 107.812 350.807 108.212C350.807 108.554 350.761 108.9 350.669 109.25C350.586 109.608 350.461 109.958 350.294 110.3C350.127 110.642 349.927 110.971 349.694 111.288C349.461 111.604 349.202 111.896 348.919 112.163L348.732 111.975ZM376.7 100.15C376.7 101.517 376.496 102.746 376.088 103.837C375.679 104.929 375.104 105.858 374.363 106.625C373.621 107.392 372.729 107.979 371.688 108.387C370.654 108.796 369.513 109 368.263 109H361.8V91.3125H368.263C369.513 91.3125 370.654 91.5167 371.688 91.925C372.729 92.3333 373.621 92.9208 374.363 93.6875C375.104 94.4542 375.679 95.3833 376.088 96.475C376.496 97.5667 376.7 98.7917 376.7 100.15ZM375.375 100.15C375.375 98.9167 375.204 97.8167 374.863 96.85C374.521 95.8833 374.038 95.0667 373.413 94.4C372.788 93.7333 372.038 93.225 371.163 92.875C370.288 92.525 369.321 92.35 368.263 92.35H363.088V107.962H368.263C369.321 107.962 370.288 107.787 371.163 107.438C372.038 107.087 372.788 106.579 373.413 105.912C374.038 105.246 374.521 104.429 374.863 103.462C375.204 102.496 375.375 101.392 375.375 100.15ZM385.144 100.05C385.927 100.05 386.627 99.9583 387.244 99.775C387.869 99.5833 388.394 99.3125 388.819 98.9625C389.252 98.6125 389.582 98.1917 389.807 97.7C390.032 97.2083 390.144 96.6542 390.144 96.0375C390.144 94.7792 389.732 93.8458 388.907 93.2375C388.09 92.6292 386.894 92.325 385.319 92.325H382.082V100.05H385.144ZM392.994 109H391.894C391.752 109 391.632 108.979 391.532 108.937C391.44 108.887 391.352 108.8 391.269 108.675L385.594 101.5C385.527 101.408 385.457 101.329 385.382 101.262C385.315 101.196 385.236 101.146 385.144 101.112C385.061 101.071 384.957 101.042 384.832 101.025C384.715 101.008 384.569 101 384.394 101H382.082V109H380.794V91.3125H385.319C387.352 91.3125 388.873 91.7083 389.882 92.5C390.898 93.2833 391.407 94.4375 391.407 95.9625C391.407 96.6375 391.29 97.2542 391.057 97.8125C390.823 98.3708 390.486 98.8625 390.044 99.2875C389.611 99.7042 389.082 100.046 388.457 100.312C387.84 100.579 387.144 100.758 386.369 100.85C386.569 100.975 386.748 101.142 386.907 101.35L392.994 109ZM406.605 107.937L406.58 109H395.98V91.3125H406.58V92.375H397.267V99.525H405.017V100.562H397.267V107.937H406.605ZM420.019 102.575L416.419 93.6375C416.294 93.3458 416.173 92.9958 416.057 92.5875C416.007 92.7875 415.952 92.9792 415.894 93.1625C415.836 93.3375 415.773 93.5 415.707 93.65L412.107 102.575H420.019ZM423.932 109H422.944C422.827 109 422.732 108.971 422.657 108.912C422.582 108.846 422.523 108.762 422.482 108.662L420.407 103.525H411.719L409.644 108.662C409.611 108.754 409.552 108.833 409.469 108.9C409.386 108.967 409.286 109 409.169 109H408.194L415.432 91.3125H416.694L423.932 109ZM444.338 91.3125V109H443.226V93.925C443.226 93.7083 443.238 93.4792 443.263 93.2375L436.301 105.6C436.184 105.817 436.018 105.925 435.801 105.925H435.601C435.384 105.925 435.218 105.817 435.101 105.6L427.951 93.2125C427.976 93.4625 427.988 93.7 427.988 93.925V109H426.863V91.3125H427.751C427.868 91.3125 427.959 91.325 428.026 91.35C428.093 91.375 428.159 91.4417 428.226 91.55L435.363 103.85C435.488 104.083 435.597 104.333 435.688 104.6C435.738 104.467 435.793 104.337 435.851 104.212C435.909 104.079 435.972 103.954 436.038 103.837L442.976 91.55C443.043 91.4417 443.109 91.375 443.176 91.35C443.251 91.325 443.347 91.3125 443.463 91.3125H444.338ZM460.194 107.937L460.169 109H449.569V91.3125H460.169V92.375H450.856V99.525H458.606V100.562H450.856V107.937H460.194ZM468.421 100.05C469.204 100.05 469.904 99.9583 470.521 99.775C471.146 99.5833 471.671 99.3125 472.096 98.9625C472.529 98.6125 472.858 98.1917 473.083 97.7C473.308 97.2083 473.421 96.6542 473.421 96.0375C473.421 94.7792 473.008 93.8458 472.183 93.2375C471.366 92.6292 470.171 92.325 468.596 92.325H465.358V100.05H468.421ZM476.271 109H475.171C475.029 109 474.908 108.979 474.808 108.937C474.716 108.887 474.629 108.8 474.546 108.675L468.871 101.5C468.804 101.408 468.733 101.329 468.658 101.262C468.591 101.196 468.512 101.146 468.421 101.112C468.337 101.071 468.233 101.042 468.108 101.025C467.991 101.008 467.846 101 467.671 101H465.358V109H464.071V91.3125H468.596C470.629 91.3125 472.15 91.7083 473.158 92.5C474.175 93.2833 474.683 94.4375 474.683 95.9625C474.683 96.6375 474.566 97.2542 474.333 97.8125C474.1 98.3708 473.762 98.8625 473.321 99.2875C472.887 99.7042 472.358 100.046 471.733 100.312C471.116 100.579 470.421 100.758 469.646 100.85C469.846 100.975 470.025 101.142 470.183 101.35L476.271 109Z" fill="#725615"/>
</svg>
